# compactE: v1 vt3 vn2（法线聚类 1.0°）
v -47.8 41.1 14.9
v -58.8 33.5 15.6
v -47.8 41.1 16.3
v -53.3 37.3 14.8
v -53.3 37.3 16.4
v 63.4 -57.7 15.6
v 51.4 -65.0 15.6
v 55.4 -60.6 14.8
v 55.4 -60.6 16.4
v 66.5 -59.7 15.6
v 59.3 -63.0 15.6
v 31.0 -37.9 15.6
v 20.6 -46.0 15.6
v 25.8 -41.9 14.8
v 25.8 -41.9 16.4
v 3.8 -16.9 15.6
v -6.9 -24.8 15.6
v -1.6 -20.9 14.8
v -1.6 -20.9 16.4
v -22.1 8.1 15.6
v -32.9 0.3 15.6
v -27.5 4.2 14.8
v -27.5 4.2 16.4
v 0.0 70.7 0.0
v 70.7 0.0 0.0
v -70.7 0.0 0.0
v 0.0 -70.7 0.0
v 0.0 55.7 4.0
v 55.7 0.0 4.0
v -55.7 0.0 4.0
v 0.0 -55.7 4.0
v 0.0 55.7 -4.0
v 55.7 0.0 -4.0
v -55.7 0.0 -4.0
v 0.0 -55.7 -4.0
v -48.2 44.0 14.1
v -60.8 35.3 14.6
v -48.2 44.0 17.0
v -60.8 35.3 16.5
v -45.4 39.8 14.1
v -58.0 31.2 14.6
v -45.4 39.8 17.0
v -58.0 31.2 16.5
v -54.9 39.4 13.8
v -54.9 39.4 17.2
v -52.0 35.3 13.8
v -52.0 35.3 17.2
v -47.4 45.4 12.6
v -62.0 35.4 12.6
v -74.8 78.1 13.3
v -82.3 72.9 13.3
v -74.8 78.1 17.7
v -82.3 72.9 17.7
v -47.4 45.4 18.5
v -62.0 35.4 18.5
v -46.5 44.1 12.6
v -61.1 34.1 12.6
v -46.5 44.1 18.5
v -61.1 34.1 18.5
v -78.7 75.7 12.3
v -54.9 39.4 10.9
v -78.7 75.7 18.8
v -54.9 39.4 20.2
v -72.0 78.3 13.0
v -83.6 70.3 13.0
v -72.0 78.3 18.0
v -83.6 70.3 18.0
v -69.4 76.2 12.6
v -82.5 67.1 12.6
v -69.4 76.2 18.5
v -82.5 67.1 18.5
v -76.0 71.6 10.9
v -76.0 71.6 20.2
v -54.2 38.4 30.3
v -46.5 43.6 28.3
v -39.7 48.2 22.1
v -37.5 49.8 15.5
v -39.7 48.2 8.9
v -46.5 43.6 2.8
v -54.2 38.4 0.8
v -61.9 33.0 2.8
v -68.6 28.4 8.9
v -70.9 26.9 15.5
v -68.6 28.4 22.1
v -61.9 33.0 28.3
v -53.9 37.9 15.5
v -54.5 38.8 15.5
v -44.0 45.4 24.1
v -44.0 45.4 6.9
v -64.3 31.4 6.9
v -64.3 31.4 24.1
v 46.8 36.6 4.8
v 40.7 41.7 8.4
v 46.8 36.6 12.0
v 53.3 31.2 8.4
v 28.8 15.9 4.8
v 22.8 21.1 8.4
v 28.8 15.9 12.0
v 34.9 10.7 8.4
v -0.7 -14.8 4.8
v -30.3 -42.8 4.8
v -6.6 -9.4 8.4
v -36.2 -37.3 8.4
v -0.7 -14.8 12.0
v -30.3 -42.8 12.0
v 5.3 -20.1 8.4
v -24.5 -48.2 8.4
v 53.1 44.0 12.1
v 46.7 49.2 8.4
v 53.1 44.0 4.8
v 59.4 39.1 8.4
v 53.2 44.2 7.7
v 51.5 42.2 4.8
v 42.2 40.4 5.7
v 40.6 29.0 4.8
v 51.5 32.7 5.7
v 45.4 47.3 8.4
v 42.2 40.4 11.1
v 34.5 34.2 8.4
v 51.5 42.2 12.0
v 51.5 32.7 11.1
v 40.6 29.0 12.0
v 57.7 37.0 8.4
v 46.7 23.9 8.4
v 15.6 1.7 4.8
v 33.4 12.0 5.7
v 24.3 19.8 5.7
v 9.5 6.9 8.4
v 24.3 19.8 11.1
v 15.6 1.7 12.0
v 33.4 12.0 11.1
v 21.6 -3.6 8.4
v -42.9 -52.9 5.0
v -48.3 -47.6 8.4
v -42.9 -52.9 11.8
v -37.5 -58.1 8.4
v 3.8 -18.7 5.7
v -5.2 -10.8 5.7
v -16.9 -30.5 4.8
v -34.7 -38.7 5.7
v -26.0 -46.9 5.7
v -5.2 -10.8 11.1
v -22.9 -25.2 8.4
v -34.7 -38.7 11.1
v 3.8 -18.7 11.1
v -16.9 -30.5 12.0
v -26.0 -46.9 11.1
v -11.0 -35.9 8.4
v 53.2 44.2 8.8
v 57.9 40.4 11.1
v 48.3 48.0 11.2
v 49.1 47.5 8.1
v 48.3 48.0 5.7
v 57.9 40.4 5.7
v 57.9 40.4 8.4
v 56.1 38.3 5.7
v 45.2 25.2 5.7
v 46.9 46.0 5.7
v 36.0 32.9 5.7
v 46.9 46.0 11.1
v 36.0 32.9 11.1
v 56.1 38.3 11.1
v 45.2 25.2 11.1
v 20.1 -2.3 5.7
v 11.0 5.6 5.7
v 11.0 5.6 11.1
v 20.1 -2.3 11.1
v -38.8 -56.8 5.9
v -47.0 -48.9 5.9
v -47.0 -48.9 11.0
v -38.8 -56.8 11.0
v -12.5 -34.5 5.7
v -21.4 -26.5 5.7
v -21.4 -26.5 11.1
v -12.5 -34.5 11.1
v 56.7 41.4 7.7
v 49.5 47.2 8.6
v 56.7 41.4 9.2
v -47.7 -57.3 4.8
v -52.8 -50.1 8.4
v -53.6 -62.4 6.0
v -54.1 -62.8 8.4
v -51.6 -60.7 5.0
v -42.3 -52.6 4.8
v -52.0 -53.0 5.7
v -49.7 -47.3 8.4
v -46.5 -48.6 5.7
v -55.6 -60.5 7.0
v -33.1 -45.9 4.6
v -38.1 -44.9 5.3
v -33.1 -41.2 5.2
v -43.6 -43.4 8.4
v -41.3 -44.0 5.7
v -38.8 -47.0 4.8
v -44.2 -46.0 5.6
v -36.7 -47.9 4.8
v -46.9 -46.2 8.4
v -35.0 -44.4 4.4
v -47.6 -45.0 8.4
v -46.2 -43.1 8.4
v -54.0 -54.9 6.0
v -54.4 -58.1 5.7
v -53.9 -52.4 8.4
v -55.5 -60.1 6.0
v -55.9 -60.6 8.4
v -58.9 -56.6 8.4
v -57.6 -54.2 8.4
v -57.5 -58.3 7.5
v -56.1 -56.1 6.3
v -39.9 -62.1 8.4
v -43.1 -61.3 5.7
v -36.7 -59.5 8.4
v -37.9 -56.6 5.7
v -51.5 -64.2 7.0
v -33.4 -49.3 5.3
v -29.1 -45.0 5.2
v -32.0 -54.3 8.4
v -32.6 -52.2 5.7
v -35.8 -49.8 4.8
v -34.9 -54.8 5.6
v -35.3 -57.0 8.4
v -34.0 -57.8 8.4
v -31.8 -56.6 8.4
v -45.2 -63.1 6.0
v -49.0 -63.2 5.7
v -42.5 -63.1 8.4
v -51.2 -64.0 6.0
v -51.9 -64.5 8.4
v -47.5 -67.3 8.4
v -44.7 -66.3 8.4
v -49.2 -66.0 7.5
v -46.8 -64.8 6.3
v -47.7 -57.3 12.0
v -53.6 -62.4 10.8
v -51.6 -60.7 11.9
v -42.3 -52.6 12.0
v -52.0 -53.0 11.1
v -46.5 -48.6 11.1
v -55.6 -60.5 9.8
v -33.1 -45.9 12.2
v -38.1 -44.9 11.6
v -33.1 -41.2 11.6
v -41.3 -44.0 11.1
v -38.8 -47.0 12.1
v -44.2 -46.0 11.2
v -36.2 -48.8 12.0
v -35.0 -44.4 12.5
v -54.0 -54.9 10.9
v -54.4 -58.1 11.2
v -55.5 -60.1 10.8
v -57.3 -57.8 10.2
v -56.1 -56.1 10.6
v -43.1 -61.3 11.1
v -37.9 -56.6 11.1
v -51.5 -64.2 9.8
v -33.4 -49.3 11.6
v -29.1 -45.0 11.6
v -32.6 -52.2 11.1
v -35.8 -49.8 12.1
v -34.9 -54.8 11.2
v -45.2 -63.1 10.9
v -49.0 -63.2 11.2
v -51.2 -64.0 10.8
v -48.7 -65.9 10.2
v -46.8 -64.8 10.6
v 52.7 43.6 12.0
v 46.5 48.7 8.4
v 52.7 43.6 4.8
v 58.9 38.5 8.4
v 57.6 39.9 11.2
v 48.1 47.4 11.1
v 48.1 47.4 5.7
v 57.6 39.9 5.7
v 59.5 38.6 8.4
v 50.2 40.5 4.8
v 44.0 45.7 8.4
v 50.2 40.5 12.0
v 56.3 35.4 8.4
v 45.6 44.4 5.7
v 54.8 36.7 5.7
v 45.6 44.4 11.1
v 54.8 36.7 11.1
v 50.8 41.3 4.7
v 44.8 46.6 8.4
v 50.8 41.3 12.2
v 57.1 36.3 8.4
v 55.5 37.3 5.7
v 46.0 45.2 5.7
v 46.0 45.2 11.2
v 55.5 37.3 11.2
v 44.0 46.5 8.4
v 57.1 35.6 8.4
v 55.6 -32.4 8.4
v 55.6 -34.5 10.1
v 57.4 -34.3 8.2
v 55.4 -34.0 6.4
v 53.6 -34.1 8.3
v 55.4 -36.0 8.0
v 51.0 -50.9 10.8
v 55.0 -46.0 10.5
v 56.1 -46.9 6.1
v 50.8 -50.1 6.4
v 55.0 -35.2 8.6
v 55.9 -35.2 8.6
v 55.9 -34.9 7.7
v 55.0 -34.9 7.7
v 58.0 36.5 8.5
v 56.8 35.4 9.9
v 57.9 34.4 8.3
v 57.0 35.7 6.9
v 56.0 36.7 8.4
v 55.8 34.7 8.2
v 55.2 -13.2 9.8
v 55.4 -33.1 9.8
v 75.2 -12.9 9.8
v 55.1 6.8 9.8
v 35.3 -13.5 9.8
v 55.4 -33.5 8.4
v 75.6 -12.9 8.4
v 55.1 7.2 8.4
v 34.9 -13.4 8.4
v 55.4 -33.2 7.1
v 75.3 -12.9 7.1
v 55.1 6.8 7.1
v 35.2 -13.5 7.1
v 55.2 -13.2 7.1
v 54.2 9.7 8.4
v 54.9 7.8 10.1
v 56.6 8.6 8.2
v 54.7 8.2 6.4
v 53.1 7.7 8.3
v 55.1 6.1 8.0
v 53.6 21.6 7.9
v 54.4 21.6 8.0
v 53.9 8.4 8.7
v 55.1 8.2 8.8
v 55.2 8.5 7.6
v 54.1 8.7 7.6
v 56.1 34.6 7.7
v 57.5 34.9 7.7
v 57.5 34.9 9.2
v 56.1 34.6 9.2
v 58.2 21.1 8.6
v 57.5 21.1 8.3
v 55.8 8.3 8.3
v 54.7 8.5 7.9
v 54.3 8.7 9.0
v 55.4 8.6 9.4
v 57.3 35.1 9.3
v 56.0 34.7 8.9
v 56.3 34.8 7.5
v 57.7 35.2 7.9
v -6.0 -27.7 15.3
v 3.7 -39.3 15.9
v -6.0 -27.7 16.5
v -1.1 -33.5 15.2
v -1.1 -33.5 16.6
v 37.9 12.2 15.3
v 47.8 0.8 15.9
v 37.9 12.2 16.5
v 42.8 6.5 15.2
v 42.8 6.5 16.6
v -47.5 74.0 15.9
v -33.1 80.7 15.9
v -37.8 75.8 15.2
v -37.8 75.8 16.6
v -51.3 77.4 15.9
v -42.7 80.0 15.9
v -8.4 39.4 15.9
v 4.2 47.6 15.9
v -2.1 43.5 15.2
v -2.1 43.5 16.6
v 12.8 17.0 16.5
v 20.2 19.8 15.2
v 12.8 17.0 15.3
v 20.2 19.8 16.6
v 27.7 22.7 15.9
v -55.0 -4.1 15.3
v -42.0 3.5 15.9
v -55.0 -4.1 16.5
v -48.5 -0.3 15.2
v -48.5 -0.3 16.6
v -62.8 5.8 15.3
v -49.8 13.5 15.9
v -56.3 9.6 16.6
v -56.3 9.6 15.2
v -62.8 5.8 16.5
v 19.0 52.5 15.3
v 31.5 44.1 15.9
v 19.0 52.5 16.5
v 25.3 48.3 15.2
v 25.3 48.3 16.6
v 25.5 68.3 16.5
v 31.2 62.7 15.2
v 25.5 68.3 15.3
v 31.2 62.7 16.6
v 36.8 57.1 15.9
v -29.2 3.1 15.3
v -15.4 -3.0 15.9
v -29.2 3.1 16.5
v -22.3 0.0 15.2
v -22.3 0.0 16.6
v -32.6 -7.7 16.5
v -24.9 -8.0 15.2
v -32.6 -7.7 15.3
v -24.9 -8.0 16.6
v -17.1 -8.3 15.9
v -39.8 34.5 15.3
v -26.0 41.1 15.9
v -32.9 37.8 16.6
v -32.9 37.8 15.2
v -39.8 34.5 16.5
v -30.8 22.9 15.3
v -17.7 30.5 15.9
v -24.3 26.7 16.6
v -24.3 26.7 15.2
v -30.8 22.9 16.5
v 65.9 20.9 16.5
v 59.8 16.0 15.2
v 65.9 20.9 15.3
v 59.8 16.0 16.6
v 53.7 11.2 15.9
v 61.3 31.8 15.3
v 46.2 29.0 15.9
v 53.8 30.4 16.6
v 53.8 30.4 15.2
v 61.3 31.8 16.5
v -9.6 -29.2 14.2
v 1.3 -42.5 14.7
v -9.6 -29.2 16.8
v 1.3 -42.5 16.4
v -4.2 -24.6 14.2
v 6.7 -37.9 14.7
v -4.2 -24.6 16.8
v 6.7 -37.9 16.4
v -3.9 -36.2 14.0
v -3.9 -36.2 17.1
v 1.6 -31.6 14.0
v 1.6 -31.6 17.1
v -11.4 -28.5 12.8
v 1.2 -43.9 12.8
v -54.6 -71.3 13.5
v -48.2 -79.2 13.5
v -54.6 -71.3 17.6
v -48.2 -79.2 17.6
v -11.4 -28.5 18.3
v 1.2 -43.9 18.3
v -9.8 -27.2 12.8
v 2.8 -42.5 12.8
v -9.8 -27.2 18.3
v 2.8 -42.5 18.3
v -51.6 -75.3 12.6
v -3.8 -36.2 11.2
v -51.6 -75.3 18.5
v -3.8 -36.2 19.8
v -54.9 -67.8 13.2
v -44.8 -80.0 13.2
v -54.9 -67.8 17.9
v -44.8 -80.0 17.9
v -52.1 -64.1 12.8
v -40.6 -77.8 12.8
v -52.1 -64.1 18.3
v -40.6 -77.8 18.3
v -46.3 -71.0 11.2
v -46.3 -71.0 19.8
v -2.5 -35.0 29.1
v -9.2 -26.9 27.2
v -15.0 -19.8 21.6
v -16.9 -17.5 15.5
v -15.0 -19.8 9.5
v -9.2 -26.9 3.8
v -2.5 -35.0 2.0
v 4.2 -43.1 3.8
v 10.0 -50.2 9.5
v 11.9 -52.6 15.5
v 10.0 -50.2 21.6
v 4.2 -43.1 27.2
v -1.9 -34.5 15.5
v -3.1 -35.5 15.5
v -11.2 -24.3 23.4
v -11.2 -24.3 7.6
v 6.3 -45.7 7.6
v 6.3 -45.7 23.4
v 3.8 -16.9 14.9
v 3.8 -16.9 16.3
v -22.1 8.1 14.9
v -22.1 8.1 16.3
v -79.0 76.1 13.1
v -55.3 40.0 10.9
v -79.0 76.1 18.0
v -55.3 40.0 20.2
v -54.4 38.7 10.9
v -54.4 38.7 20.2
v -78.4 75.2 11.5
v -78.4 75.2 19.5
v -54.8 2.5 4.0
v -54.6 -4.0 1.5
v -54.8 2.5 -4.0
v -55.0 8.8 1.5
v -102.8 0.7 4.0
v -102.5 -5.7 1.5
v -102.8 0.7 -4.0
v -103.2 7.1 1.5
v -177.4 -4.1 4.0
v -248.5 -10.7 4.0
v -176.8 -10.5 1.5
v -247.6 -17.1 1.5
v -177.4 -4.1 -4.0
v -248.5 -10.7 -4.0
v -177.9 2.2 1.5
v -249.3 -4.4 1.5
v -39.0 2.9 -4.0
v -37.3 -4.5 0.0
v -37.8 2.9 3.5
v -37.3 9.3 0.0
v -37.3 2.9 -0.8
v -39.9 2.9 3.7
v -72.0 2.1 4.0
v -41.8 -3.5 1.5
v -54.6 -3.5 -0.8
v -71.8 -4.3 1.5
v -54.9 8.4 -0.8
v -72.0 2.1 -4.0
v -42.1 9.3 1.5
v -72.2 8.5 1.5
v -137.0 -1.2 4.0
v -136.6 -7.6 1.5
v -102.6 -5.2 -0.8
v -137.0 -1.2 -4.0
v -103.1 6.7 -0.8
v -137.4 5.2 1.5
v -276.1 -14.6 3.8
v -275.0 -21.5 0.0
v -276.1 -14.6 -3.8
v -277.3 -7.8 0.0
v -216.9 -7.5 4.0
v -176.9 -10.1 -0.8
v -216.2 -13.9 1.5
v -247.7 -16.6 -0.8
v -177.8 1.8 -0.8
v -216.9 -7.5 -4.0
v -249.2 -4.8 -0.8
v -217.5 -1.1 1.5
v -39.7 8.6 -1.9
v -39.8 -2.7 -1.6
v -37.3 -1.9 0.5
v -37.3 -2.6 3.0
v -37.3 8.4 3.0
v -41.8 -3.0 -0.8
v -71.8 -3.9 -0.8
v -42.1 8.8 -0.8
v -72.1 8.1 -0.8
v -136.6 -7.2 -0.8
v -137.4 4.8 -0.8
v -277.0 -9.5 2.9
v -275.3 -19.8 2.9
v -275.3 -19.8 -2.9
v -277.0 -9.5 -2.9
v -216.2 -13.4 -0.8
v -217.4 -1.6 -0.8
v -37.3 6.9 0.9
v -37.3 -1.6 -0.2
v -37.3 4.9 -0.9
v -291.9 -16.7 3.7
v -284.9 -22.3 -1.5
v -300.8 -15.9 2.7
v -301.5 -18.0 0.0
v -275.1 -14.3 4.0
v -287.0 -22.1 1.5
v -275.1 -21.1 -1.5
v -272.9 -20.4 1.5
v -300.6 -19.8 1.6
v -255.5 -12.6 4.2
v -259.9 -15.4 3.5
v -249.5 -13.7 3.6
v -263.9 -20.3 0.0
v -262.3 -18.2 3.0
v -263.5 -14.7 4.1
v -268.2 -19.4 3.1
v -262.7 -11.9 4.2
v -270.6 -22.3 0.0
v -266.5 -22.4 0.0
v -291.2 -21.8 2.8
v -296.1 -20.2 3.1
v -287.6 -23.1 0.0
v -301.1 -19.9 0.0
v -298.9 -24.4 0.0
v -296.8 -22.4 -0.3
v -298.2 -21.8 0.8
v -286.6 -8.8 -1.5
v -288.7 -9.5 1.5
v -277.0 -7.7 -1.5
v -274.6 -7.8 1.5
v -301.2 -14.7 1.6
v -258.3 -10.5 3.9
v -265.9 -5.8 0.0
v -263.8 -7.3 3.0
v -264.0 -11.5 4.0
v -269.9 -7.7 3.1
v -272.9 -5.3 0.0
v -269.0 -4.4 0.0
v -292.7 -10.9 2.8
v -297.0 -13.5 3.1
v -289.6 -8.8 0.0
v -300.6 -14.6 2.7
v -301.9 -14.8 0.0
v -300.9 -10.0 0.0
v -294.6 -10.4 -0.8
v -301.1 -12.2 1.0
v -291.9 -16.7 -3.7
v -300.8 -15.9 -2.7
v -275.1 -14.3 -4.0
v -300.6 -19.8 -1.6
v -255.5 -12.6 -4.2
v -259.9 -15.4 -3.5
v -249.5 -13.7 -3.6
v -262.3 -18.2 -3.0
v -263.5 -14.7 -4.1
v -268.2 -19.4 -3.1
v -262.7 -11.9 -4.2
v -291.2 -21.8 -2.8
v -296.1 -20.2 -3.1
v -299.8 -19.9 -2.7
v -298.8 -21.2 -1.9
v -301.2 -14.7 -1.6
v -258.3 -10.5 -3.9
v -263.8 -7.3 -3.0
v -264.0 -11.5 -4.0
v -269.9 -7.7 -3.1
v -292.7 -10.9 -2.8
v -297.0 -13.5 -3.1
v -300.2 -13.2 -1.6
v -94.6 71.0 -0.0
v -96.2 72.9 -2.1
v -94.4 74.2 0.3
v -96.0 72.4 2.5
v -97.8 71.1 0.2
v -97.7 74.2 0.5
v -113.7 84.7 -2.9
v -101.7 78.2 -1.4
v -113.2 83.9 2.5
v -99.1 76.2 1.1
v -38.5 10.9 -0.1
v -41.3 10.9 -1.8
v -41.3 13.2 0.2
v -40.7 10.8 2.0
v -40.8 8.5 0.0
v -43.5 10.4 0.3
v -79.5 52.7 -1.6
v -95.2 71.7 -1.6
v -60.5 68.4 -1.6
v -63.8 33.6 -1.6
v -98.6 37.0 -1.6
v -95.5 72.0 -0.0
v -60.2 68.7 -0.0
v -63.6 33.3 -0.0
v -98.9 36.6 -0.0
v -95.2 71.7 1.6
v -60.5 68.4 1.6
v -63.8 33.6 1.6
v -98.6 37.0 1.6
v -79.5 52.7 1.6
v -62.2 30.4 -0.0
v -63.0 32.8 -2.1
v -60.9 33.3 0.3
v -63.0 32.2 2.5
v -64.9 31.4 0.2
v -64.2 34.5 0.5
v -54.2 20.1 0.7
v -53.5 20.8 0.6
v -63.5 31.4 -0.3
v -62.6 32.5 -0.4
v -62.2 32.3 1.0
v -63.1 31.3 1.1
v -43.2 11.8 1.3
v -41.0 13.1 1.3
v -41.1 13.2 -1.3
v -43.2 11.8 -1.3
v -50.3 24.1 -0.1
v -51.0 23.6 0.1
v -61.8 33.0 0.2
v -62.7 31.9 0.6
v -62.8 31.4 -0.7
v -62.0 32.4 -1.2
v -41.1 12.7 -1.6
v -43.2 11.5 -0.9
v -42.6 11.8 1.6
v -40.4 12.9 0.9
v -38.4 2.9 -4.1
v -38.3 -4.6 0.0
v -38.4 2.9 4.1
v -38.4 8.5 -3.1
v -38.3 -2.8 -3.1
v -38.3 -2.8 3.1
v -38.4 8.5 3.1
v -37.6 9.9 0.0
v -45.7 2.7 4.0
v -45.5 -4.6 0.0
v -45.7 2.7 -4.0
v -45.8 10.0 0.0
v -45.5 -2.8 3.0
v -45.8 8.2 3.0
v -45.5 -2.8 -3.0
v -45.8 8.2 -3.0
v -44.0 2.7 4.2
v -43.3 -4.6 0.0
v -44.0 2.7 -4.2
v -43.8 10.0 0.0
v -44.2 8.3 3.1
v -43.9 -3.0 3.1
v -43.9 -3.0 -3.1
v -44.2 8.3 -3.1
v -44.3 -5.1 0.0
v -44.5 9.4 1.6
v -54.8 2.5 4.8
v -54.5 -5.8 0.0
v -54.8 2.5 -4.8
v -55.0 10.7 0.0
v -102.8 0.7 4.8
v -102.4 -7.5 0.0
v -102.8 0.7 -4.8
v -103.3 8.9 0.0
v -292.9 -16.3 4.7
v -287.0 -23.7 0.0
v -292.9 -16.3 -4.7
v -289.8 -7.5 0.0
v -302.8 -17.6 3.6
v -300.9 -24.0 0.0
v -302.8 -17.6 -3.6
v -303.2 -11.1 0.0
v -304.0 -17.9 0.0
v -177.4 -4.1 4.8
v -248.5 -10.7 4.8
v -176.7 -12.3 0.0
v -247.4 -18.9 0.0
v -177.4 -4.1 -4.8
v -248.5 -10.7 -4.8
v -178.0 4.1 0.0
v -249.5 -2.6 0.0
v -36.5 2.9 -3.8
v -36.6 -4.9 0.0
v -36.5 2.9 3.8
v -37.1 10.7 0.0
v -36.1 5.0 -1.1
v -41.9 2.9 4.8
v -54.6 -3.6 3.6
v -72.0 2.1 4.8
v -54.9 8.5 3.6
v -41.7 -5.3 0.0
v -54.6 -3.6 -3.6
v -71.7 -6.2 0.0
v -41.9 2.9 -4.8
v -54.9 8.5 -3.6
v -72.0 2.1 -4.8
v -42.1 11.1 0.0
v -72.2 10.3 0.0
v -137.0 -1.2 4.8
v -103.1 6.7 3.6
v -102.5 -5.4 3.6
v -136.4 -9.4 0.0
v -102.5 -5.4 -3.6
v -137.0 -1.2 -4.8
v -103.1 6.7 -3.6
v -137.6 7.0 0.0
v -293.9 -10.4 3.5
v -276.1 -13.9 4.8
v -293.2 -21.8 3.4
v -296.2 -24.8 0.0
v -274.8 -22.1 0.0
v -293.2 -21.8 -3.4
v -276.1 -13.9 -4.8
v -293.9 -10.4 -3.5
v -298.9 -9.2 0.0
v -277.5 -5.8 0.0
v -302.9 -12.7 4.0
v -301.9 -21.6 2.8
v -302.9 -21.8 0.0
v -301.9 -21.6 -2.8
v -302.9 -12.7 -4.0
v -304.3 -13.8 0.0
v -177.9 1.9 3.6
v -176.9 -10.2 3.6
v -216.9 -7.5 4.8
v -247.7 -16.8 3.6
v -249.3 -4.7 3.6
v -176.9 -10.2 -3.6
v -216.0 -15.7 0.0
v -247.7 -16.8 -3.6
v -177.9 1.9 -3.6
v -216.9 -7.5 -4.8
v -249.3 -4.7 -3.6
v -217.7 0.7 0.0
v -36.6 8.6 -1.7
v -36.4 -2.0 -2.9
v -36.2 -2.2 0.7
v -36.4 -2.0 2.9
v -38.1 8.7 0.9
v -72.2 8.1 3.6
v -41.8 -3.2 3.6
v -71.8 -4.0 3.6
v -41.8 -3.2 -3.6
v -71.8 -4.0 -3.6
v -42.1 8.9 -3.6
v -72.2 8.1 -3.6
v -137.4 4.8 3.6
v -136.6 -7.3 3.6
v -136.6 -7.3 -3.6
v -137.4 4.8 -3.6
v -277.1 -7.9 3.6
v -275.1 -19.9 3.6
v -275.1 -19.9 -3.6
v -277.1 -7.9 -3.6
v -299.2 -22.1 3.1
v -299.2 -22.1 -3.1
v -303.3 -16.1 3.1
v -303.3 -16.1 -3.1
v -217.5 -1.5 3.6
v -216.3 -13.5 3.6
v -216.3 -13.5 -3.6
v -217.5 -1.5 -3.6
v -36.3 5.0 3.0
v -34.0 -2.2 -1.1
v -34.0 8.8 -0.7
v -34.0 -2.2 1.1
v -34.0 8.8 0.7
v -42.5 -2.2 -1.1
v -42.5 8.7 -0.7
v -42.5 -2.2 1.1
v -42.5 8.7 0.7
v -34.0 3.6 -1.3
v -34.0 3.6 1.3
v -42.5 3.5 -1.3
v -42.5 3.5 1.3
v -32.8 -3.2 -2.3
v -32.8 9.4 -2.3
v 39.2 0.4 0.0
v 39.2 6.9 0.0
v -32.8 -3.2 2.3
v -32.8 9.4 2.3
v -35.4 -3.2 -2.3
v -35.4 9.4 -2.3
v -35.4 -3.2 2.3
v -35.4 9.4 2.3
v 39.5 3.6 -2.5
v -34.1 3.6 -3.6
v 39.5 3.6 2.5
v -34.1 3.6 3.6
v 36.9 -1.4 -1.9
v 36.8 8.6 -1.9
v 36.9 -1.4 1.9
v 36.8 8.6 1.9
v 31.5 -2.1 -2.3
v 31.2 9.2 -2.3
v 31.5 -2.1 2.3
v 31.2 9.2 2.3
v 31.4 3.6 -3.6
v 31.4 3.6 3.6
v -36.1 3.6 11.3
v -36.1 -3.1 9.7
v -36.1 -8.9 5.0
v -36.1 -10.8 0.0
v -36.1 -8.9 -5.0
v -36.1 -3.1 -9.7
v -36.1 3.6 -11.3
v -36.1 10.3 -9.7
v -36.1 16.1 -5.0
v -36.1 18.0 0.0
v -36.1 16.1 5.0
v -36.1 10.3 9.7
v -37.1 3.6 0.0
v -35.2 3.6 0.0
v -36.1 -5.2 6.6
v -36.1 -5.2 -6.6
v -36.1 12.4 -6.6
v -36.1 12.4 6.6
v -32.8 -3.2 0.0
v 36.9 -1.4 0.0
v 36.8 8.6 0.0
v -38.6 -1.3 -0.5
v -38.6 8.2 0.0
v -38.6 -1.3 0.5
v -38.6 3.4 -0.6
v -38.6 3.4 0.6
v -285.8 -21.3 0.0
v -284.0 -11.4 0.0
v -281.8 -15.6 -0.6
v -281.8 -15.6 0.6
v -291.7 -22.1 0.0
v -289.1 -16.6 0.0
v -226.2 -12.5 0.0
v -227.1 -3.1 0.0
v -226.7 -7.8 -0.6
v -226.7 -7.8 0.6
v -170.1 -6.6 0.0
v -170.7 2.9 0.0
v -170.4 -1.9 -0.6
v -170.4 -1.9 0.6
v -109.9 -2.6 0.0
v -110.2 6.9 0.0
v -110.0 2.1 -0.6
v -110.0 2.1 0.6
v -38.2 -0.8 -0.5
v -38.2 7.5 0.2
v -42.5 0.7 0.1
v -42.5 6.1 -0.3
v -32.8 9.4 0.0
v 39.5 3.6 0.0
v 31.5 -2.1 0.0
v 31.2 9.2 0.0
v -109.9 -2.6 -0.5
v -109.9 -2.6 0.5
v -283.8 -18.4 -0.3
# 912 vertices

vt 0.688 0.087
vt 0.688 0.126
vt 0.786 0.045
vt 0.785 0.048
vt 0.712 0.035
vt 0.785 0.035
vt 0.882 0.204
vt 0.785 0.204
vt 0.882 0.048
vt 0.688 0.204
vt 0.785 0.295
vt 0.882 0.295
vt 0.688 0.295
vt 0.882 0.529
vt 0.785 0.529
vt 0.785 0.399
vt 0.882 0.399
vt 0.688 0.529
vt 0.688 0.399
vt 0.478 0.563
vt 0.476 0.564
vt 0.482 0.564
vt 0.48 0.563
vt 0.482 0.561
vt 0.48 0.562
vt 0.476 0.561
vt 0.478 0.562
vt 0.87 0.74
vt 0.669 0.64
vt 0.468 0.74
vt 0.669 0.841
vt 0.482 0.559
vt 0.476 0.559
vt 0.478 0.558
vt 0.48 0.558
vt 0.482 0.556
vt 0.48 0.557
vt 0.476 0.556
vt 0.478 0.557
vt 0.39 0.955
vt 0.375 0.955
vt 0.375 0.958
vt 0.391 0.958
vt 0.391 0.969
vt 0.375 0.969
vt 0.375 0.967
vt 0.39 0.967
vt 0.391 0.964
vt 0.375 0.964
vt 0.39 0.961
vt 0.375 0.961
vt 0.169 0.97
vt 0.169 0.996
vt 0.215 0.996
vt 0.215 0.97
vt 0.123 0.97
vt 0.123 0.996
vt 0.078 0.996
vt 0.078 0.97
vt 0.165 0.97
vt 0.165 0.996
vt 0.214 0.97
vt 0.214 0.996
vt 0.12 0.97
vt 0.12 0.996
vt 0.498 0.888
vt 0.498 0.967
vt 0.568 0.954
vt 0.498 0.889
vt 0.566 0.954
vt 0.431 0.954
vt 0.497 0.887
vt 0.427 0.954
vt 0.497 0.886
vt 0.428 0.954
vt 0.429 0.954
vt 0.567 0.954
vt 0.499 0.967
vt 0.497 0.889
vt 0.565 0.954
vt 0.43 0.954
vt 0.498 0.886
vt 0.428 0.953
vt 0.568 0.953
vt 0.59 0.927
vt 0.586 0.929
vt 0.41 0.929
vt 0.405 0.926
vt 0.591 0.926
vt 0.406 0.928
vt 0.589 0.928
vt 0.407 0.927
vt 0.589 0.926
vt 0.407 0.928
vt 0.408 0.926
vt 0.132 0.98
vt 0.132 0.933
vt 0.09 0.933
vt 0.09 0.98
vt 0.178 0.933
vt 0.178 0.98
vt 0.132 0.87
vt 0.178 0.87
vt 0.09 0.87
vt 0.193 0.98
vt 0.193 0.933
vt 0.193 0.87
vt 0.073 0.98
vt 0.073 0.933
vt 0.073 0.87
vt 0.132 0.633
vt 0.132 0.758
vt 0.178 0.758
vt 0.178 0.633
vt 0.09 0.758
vt 0.09 0.633
vt 0.193 0.633
vt 0.193 0.758
vt 0.073 0.633
vt 0.073 0.758
vt 0.09 0.485
vt 0.132 0.485
vt 0.132 0.341
vt 0.09 0.341
vt 0.178 0.485
vt 0.178 0.341
vt 0.132 0.225
vt 0.09 0.225
vt 0.178 0.225
vt 0.132 0.123
vt 0.178 0.123
vt 0.09 0.123
vt 0.193 0.485
vt 0.193 0.341
vt 0.193 0.225
vt 0.193 0.123
vt 0.073 0.485
vt 0.073 0.341
vt 0.073 0.225
vt 0.073 0.123
vt 0.183 0.996
vt 0.132 0.996
vt 0.178 0.996
vt 0.09 0.996
vt 0.193 0.996
vt 0.073 0.996
vt 0.298 0.965
vt 0.297 0.965
vt 0.297 0.986
vt 0.297 0.941
vt 0.137 0.045
vt 0.137 0.078
vt 0.182 0.078
vt 0.137 0.123
vt 0.182 0.123
vt 0.182 0.027
vt 0.137 0.027
vt 0.137 0.03
vt 0.153 0.157
vt 0.137 0.169
vt 0.182 0.139
vt 0.144 0.175
vt 0.136 0.192
vt 0.148 0.202
vt 0.15 0.177
vt 0.151 0.165
vt 0.185 0.146
vt 0.183 0.158
vt 0.194 0.152
vt 0.197 0.144
vt 0.198 0.137
vt 0.195 0.131
vt 0.2 0.08
vt 0.197 0.062
vt 0.16 0.03
vt 0.16 0.045
vt 0.16 0.027
vt 0.182 0.062
vt 0.182 0.03
vt 0.197 0.03
vt 0.197 0.045
vt 0.182 0.045
vt 0.2 0.122
vt 0.073 0.999
vt 0.09 0.999
vt 0.09 0.994
vt 0.073 0.994
vt 0.132 0.994
vt 0.178 0.999
vt 0.178 0.994
vt 0.193 0.999
vt 0.193 0.994
vt 0.193 0.968
vt 0.178 0.968
vt 0.178 0.97
vt 0.193 0.97
vt 0.193 0.972
vt 0.132 0.968
vt 0.132 0.97
vt 0.09 0.968
vt 0.09 0.97
vt 0.09 0.972
vt 0.073 0.968
vt 0.073 0.97
vt 0.073 0.972
vt 0.399 0.901
vt 0.399 0.9
vt 0.398 0.9
vt 0.4 0.901
vt 0.4 0.9
vt 0.401 0.9
vt 0.401 0.901
vt 0.402 0.9
vt 0.399 0.898
vt 0.4 0.898
vt 0.401 0.898
vt 0.41 0.568
vt 0.401 0.568
vt 0.381 0.903
vt 0.404 0.913
vt 0.405 0.9
vt 0.399 0.905
vt 0.4 0.892
vt 0.423 0.902
vt 0.671 0.741
vt 0.872 0.741
vt 0.671 0.641
vt 0.671 0.841
vt 0.471 0.741
vt 0.669 0.741
vt 0.669 0.642
vt 0.867 0.741
vt 0.669 0.839
vt 0.905 0.741
vt 0.904 0.741
vt 0.67 0.624
vt 0.671 0.624
vt 0.671 0.859
vt 0.67 0.858
vt 0.436 0.741
vt 0.899 0.741
vt 0.668 0.626
vt 0.668 0.857
vt 0.437 0.741
vt 0.461 0.531
vt 0.539 0.531
vt 0.391 0.531
vt 0.461 0.517
vt 0.391 0.517
vt 0.539 0.517
vt 0.461 0.086
vt 0.391 0.086
vt 0.391 0.469
vt 0.461 0.469
vt 0.539 0.086
vt 0.539 0.47
vt 0.878 0.528
vt 0.782 0.528
vt 0.782 0.398
vt 0.878 0.398
vt 0.687 0.528
vt 0.687 0.398
vt 0.687 0.085
vt 0.687 0.124
vt 0.784 0.043
vt 0.782 0.046
vt 0.711 0.033
vt 0.782 0.033
vt 0.878 0.203
vt 0.782 0.203
vt 0.878 0.046
vt 0.687 0.203
vt 0.878 0.317
vt 0.878 0.294
vt 0.782 0.294
vt 0.782 0.311
vt 0.687 0.305
vt 0.687 0.294
vt 0.782 0.372
vt 0.878 0.372
vt 0.687 0.372
vt 0.782 0.264
vt 0.878 0.261
vt 0.687 0.267
vt 0.782 0.343
vt 0.687 0.344
vt 0.878 0.342
vt 0.87 0.741
vt 0.468 0.741
vt 0.669 0.842
vt 0.873 0.741
vt 0.671 0.64
vt 0.671 0.842
vt 0.469 0.741
vt 0.669 0.641
vt 0.868 0.741
vt 0.669 0.84
vt 0.47 0.741
vt 0.67 0.641
vt 0.67 0.841
vt 0.465 0.969
vt 0.465 0.922
vt 0.188 0.924
vt 0.188 0.97
vt 0.762 0.921
vt 0.762 0.968
vt 0.762 0.859
vt 0.465 0.86
vt 0.188 0.861
vt 0.86 0.967
vt 0.86 0.921
vt 0.86 0.859
vt 0.078 0.971
vt 0.078 0.924
vt 0.078 0.862
vt 0.465 0.625
vt 0.465 0.748
vt 0.762 0.748
vt 0.762 0.624
vt 0.188 0.749
vt 0.188 0.625
vt 0.86 0.624
vt 0.86 0.747
vt 0.078 0.625
vt 0.078 0.749
vt 0.762 0.043
vt 0.465 0.041
vt 0.465 0.074
vt 0.762 0.076
vt 0.188 0.039
vt 0.188 0.072
vt 0.465 0.119
vt 0.188 0.117
vt 0.762 0.12
vt 0.86 0.043
vt 0.86 0.076
vt 0.86 0.121
vt 0.078 0.039
vt 0.078 0.072
vt 0.078 0.117
vt 0.762 0.024
vt 0.465 0.022
vt 0.465 0.026
vt 0.762 0.028
vt 0.188 0.025
vt 0.762 0.023
vt 0.86 0.028
vt 0.188 0.021
vt 0.078 0.024
vt 0.465 0.021
vt 0.188 0.478
vt 0.465 0.478
vt 0.465 0.334
vt 0.188 0.334
vt 0.762 0.478
vt 0.762 0.335
vt 0.465 0.219
vt 0.188 0.219
vt 0.762 0.22
vt 0.86 0.478
vt 0.86 0.335
vt 0.86 0.221
vt 0.078 0.478
vt 0.078 0.334
vt 0.078 0.218
vt 0.794 0.985
vt 0.465 0.986
vt 0.465 0.985
vt 0.762 0.984
vt 0.465 0.987
vt 0.188 0.986
vt 0.86 0.983
vt 0.188 0.987
vt 0.078 0.987
vt 0.69 0.086
vt 0.69 0.125
vt 0.788 0.044
vt 0.786 0.047
vt 0.714 0.034
vt 0.786 0.034
vt 0.883 0.204
vt 0.786 0.204
vt 0.883 0.047
vt 0.69 0.204
vt 0.786 0.296
vt 0.883 0.296
vt 0.69 0.296
vt 0.883 0.531
vt 0.786 0.531
vt 0.786 0.4
vt 0.883 0.4
vt 0.69 0.531
vt 0.69 0.4
# 393 texture vertices

vn 0.01 0.01 -1.0
vn -0.09 -0.08 0.99
vn 0.01 0.01 1.0
vn -0.06 -0.05 -1.0
vn -0.01 -0.01 1.0
vn -0.01 -0.17 0.99
vn 0.0 -0.1 -0.99
vn 0.0 -0.1 0.99
vn 0.08 -0.2 0.98
vn 0.01 0.02 -1.0
vn -0.07 -0.1 0.99
vn 0.02 0.02 1.0
vn -0.03 -0.04 -1.0
vn -0.03 -0.04 1.0
vn -0.08 -0.09 0.99
vn -0.01 -0.01 -1.0
vn -0.05 -0.05 1.0
vn -0.09 0.26 0.96
vn 0.26 0.09 0.96
vn -0.26 -0.09 0.96
vn 0.09 -0.26 0.96
vn 0.06 0.19 0.98
vn 0.15 -0.05 0.99
vn -0.15 0.05 0.99
vn -0.06 -0.19 0.98
vn -0.09 0.26 -0.96
vn 0.26 0.09 -0.96
vn -0.26 -0.09 -0.96
vn 0.09 -0.26 -0.96
vn 0.06 0.19 -0.98
vn 0.15 -0.05 -0.99
vn -0.15 0.05 -0.99
vn -0.06 -0.19 -0.98
vn 0.83 0.56 0.0
vn -0.83 -0.55 0.0
vn -0.05 -0.03 1.0
vn -0.05 -0.03 -1.0
vn -0.24 0.93 -0.29
vn -0.73 0.61 -0.29
vn -0.31 0.9 0.29
vn -0.78 0.55 0.29
vn -0.52 0.82 -0.24
vn -0.58 0.78 0.24
vn -0.07 -0.04 1.0
vn -0.07 -0.04 -1.0
vn 0.04 0.03 1.0
vn -0.03 0.62 -0.78
vn -0.94 0.26 -0.22
vn 0.09 0.9 0.42
vn -0.58 0.24 0.78
vn -0.32 0.46 -0.83
vn -0.32 0.46 0.83
vn 0.11 0.2 -0.97
vn -0.9 -0.44 0.0
vn 0.11 0.2 0.97
vn -0.21 -0.06 0.98
vn -0.04 0.1 -0.99
vn -0.04 0.1 0.99
vn 0.57 -0.82 0.0
vn -0.57 0.82 0.0
vn 0.0 0.0 -1.0
vn -0.62 0.51 -0.6
vn 0.0 0.0 1.0
vn 0.58 -0.48 0.66
vn -0.59 0.54 0.6
vn -0.02 0.02 1.0
vn 0.59 -0.54 -0.6
vn 0.0 -0.02 -1.0
vn -0.57 0.56 -0.59
vn -0.53 0.61 -0.59
vn 0.57 -0.56 0.59
vn 0.52 -0.62 0.59
vn 0.63 0.78 0.0
vn -0.4 0.33 -0.86
vn 0.38 -0.32 -0.87
vn -0.4 0.33 0.86
vn -0.62 0.51 0.6
vn 0.38 -0.32 0.87
vn 0.02 -0.01 1.0
vn 0.61 -0.5 0.61
vn 0.59 -0.52 -0.61
vn 0.38 -0.35 -0.86
vn -0.38 0.35 -0.86
vn -0.57 0.56 0.59
vn -0.42 0.38 0.83
vn 0.38 -0.35 0.86
vn 0.57 -0.56 -0.59
vn -0.04 0.03 -1.0
vn -0.52 0.62 0.59
vn 0.49 -0.64 -0.59
vn 0.36 -0.37 -0.86
vn -0.36 0.37 -0.86
vn -0.34 0.39 -0.86
vn 0.36 -0.44 -0.82
vn -0.36 0.37 0.86
vn -0.55 0.59 -0.59
vn -0.34 0.39 0.86
vn 0.36 -0.37 0.86
vn 0.33 -0.4 0.86
vn 0.55 -0.59 0.59
vn 0.4 -0.33 -0.86
vn -0.33 0.29 0.9
vn 0.4 -0.33 0.86
vn 0.24 -0.32 -0.92
vn 0.31 -0.42 0.85
vn -0.52 0.48 -0.7
vn -0.49 -0.52 -0.69
vn -0.68 -0.73 0.0
vn -0.07 -0.07 -1.0
vn -0.31 0.3 -0.9
vn -0.36 0.61 -0.71
vn -0.66 -0.69 -0.29
vn -0.3 0.41 -0.86
vn -0.91 -0.28 -0.3
vn 0.1 0.11 -0.99
vn -0.21 0.42 -0.88
vn 0.0 0.26 -0.97
vn -0.14 0.81 -0.57
vn -0.16 0.55 -0.82
vn -0.15 -0.14 -0.98
vn -0.3 -0.37 -0.88
vn -0.08 -0.09 -0.99
vn -0.63 -0.49 -0.6
vn 0.0 0.11 -0.99
vn -0.14 -0.07 -0.99
vn -0.26 0.63 -0.73
vn -0.69 0.01 -0.72
vn -0.28 0.66 -0.7
vn -0.69 0.28 -0.66
vn -0.66 0.16 -0.73
vn -0.85 0.41 -0.34
vn -0.66 -0.12 -0.74
vn -0.86 -0.5 0.0
vn -0.78 -0.09 -0.62
vn -0.49 0.48 -0.73
vn -0.66 -0.17 -0.73
vn -0.79 -0.62 0.0
vn -0.38 0.24 -0.89
vn -0.87 -0.38 -0.3
vn -0.66 0.35 -0.66
vn -0.49 0.1 -0.86
vn -0.91 0.39 -0.15
vn -0.84 -0.01 -0.54
vn -0.96 -0.28 0.0
vn 0.38 -0.65 -0.66
vn 0.27 -0.38 -0.88
vn 0.52 -0.47 -0.71
vn 0.34 -0.32 -0.88
vn -0.28 -0.92 -0.28
vn 0.37 -0.26 -0.89
vn 0.23 -0.01 -0.97
vn 0.77 -0.21 -0.6
vn 0.51 -0.21 -0.84
vn -0.13 -0.16 -0.98
vn -0.18 -0.41 -0.89
vn 0.08 -0.68 -0.73
vn 0.1 -0.01 -1.0
vn -0.07 -0.16 -0.98
vn 0.58 -0.32 -0.75
vn -0.02 -0.73 -0.68
vn 0.6 -0.33 -0.72
vn 0.21 -0.73 -0.65
vn 0.11 -0.62 -0.77
vn 0.31 -0.89 -0.33
vn -0.14 -0.69 -0.71
vn -0.47 -0.88 0.0
vn -0.1 -0.81 -0.58
vn 0.41 -0.56 -0.72
vn -0.18 -0.69 -0.7
vn -0.57 -0.82 0.0
vn 0.2 -0.42 -0.89
vn -0.37 -0.89 -0.28
vn 0.28 -0.71 -0.65
vn 0.07 -0.53 -0.85
vn 0.3 -0.94 -0.15
vn -0.05 -0.86 -0.51
vn -0.28 -0.96 0.0
vn -0.49 -0.52 0.69
vn -0.07 -0.07 1.0
vn -0.31 0.3 0.9
vn -0.66 -0.69 0.29
vn -0.3 0.41 0.86
vn -0.91 -0.28 0.3
vn 0.1 0.11 0.99
vn -0.21 0.42 0.88
vn 0.0 0.26 0.97
vn -0.16 0.55 0.82
vn -0.15 -0.14 0.98
vn -0.3 -0.37 0.88
vn -0.0 0.12 0.99
vn -0.14 -0.07 0.99
vn -0.26 0.63 0.73
vn -0.69 0.28 0.66
vn -0.58 0.16 0.8
vn -0.66 -0.12 0.74
vn -0.66 -0.17 0.73
vn -0.38 0.24 0.89
vn -0.87 -0.38 0.3
vn -0.66 0.35 0.66
vn -0.49 0.1 0.86
vn -0.84 -0.01 0.54
vn 0.27 -0.38 0.88
vn 0.34 -0.32 0.88
vn -0.28 -0.92 0.28
vn 0.37 -0.26 0.89
vn 0.23 -0.01 0.97
vn 0.51 -0.21 0.84
vn -0.13 -0.16 0.98
vn -0.18 -0.41 0.89
vn 0.09 -0.0 1.0
vn -0.07 -0.16 0.98
vn 0.58 -0.32 0.75
vn 0.21 -0.73 0.65
vn 0.1 -0.7 0.71
vn -0.14 -0.69 0.71
vn -0.18 -0.69 0.7
vn 0.2 -0.42 0.89
vn -0.37 -0.89 0.28
vn 0.28 -0.71 0.65
vn 0.07 -0.53 0.85
vn -0.05 -0.86 0.51
vn -0.04 1.0 0.0
vn 0.99 0.12 0.0
vn 0.57 0.21 0.79
vn 0.57 0.21 -0.79
vn -0.27 -0.34 0.9
vn -0.98 -0.13 0.17
vn -0.27 -0.34 -0.9
vn 0.07 -1.0 0.0
vn -0.1 -0.61 0.79
vn -0.58 -0.22 0.79
vn -0.67 -0.19 -0.72
vn -0.1 -0.61 -0.79
vn 0.59 0.01 0.81
vn -0.08 0.59 0.8
vn -0.08 0.59 -0.8
vn 0.75 0.16 -0.64
vn -0.19 -0.23 -0.95
vn -0.86 0.03 -0.5
vn -0.19 -0.23 0.95
vn 0.2 -0.84 -0.51
vn -0.52 -0.09 -0.85
vn 0.01 -0.53 -0.85
vn -0.52 -0.09 0.85
vn 0.01 -0.53 0.85
vn -0.17 0.99 0.0
vn 0.98 0.04 0.18
vn 0.65 0.13 -0.75
vn -0.55 0.08 -0.83
vn -0.45 0.41 0.79
vn 0.18 -0.52 0.83
vn 0.62 0.49 0.61
vn 0.59 0.62 -0.51
vn -0.56 0.68 -0.48
vn 0.54 -0.69 0.47
vn -0.15 0.18 0.97
vn -0.06 0.19 0.98
vn 0.99 -0.01 0.12
vn -0.13 0.12 -0.98
vn 0.02 0.18 0.98
vn 1.0 0.02 -0.0
vn -0.08 0.12 -0.99
vn 0.78 -0.12 0.61
vn 0.86 0.0 -0.51
vn 0.12 0.87 -0.48
vn -0.14 -0.87 0.47
vn 0.71 -0.7 0.08
vn 0.71 -0.7 -0.06
vn 0.7 0.71 -0.06
vn -0.71 0.7 0.01
vn 0.41 0.68 0.61
vn 0.33 0.79 -0.51
vn -0.74 0.45 -0.49
vn 0.75 -0.48 0.45
vn 0.99 -0.1 0.06
vn 0.04 0.0 -1.0
vn 0.07 -0.01 -1.0
vn -0.08 -0.01 1.0
vn 0.99 0.06 0.11
vn 0.05 -0.02 -1.0
vn 0.04 0.03 -1.0
vn -0.0 0.05 -1.0
vn 0.97 -0.23 -0.01
vn -0.97 0.24 -0.03
vn -0.95 0.06 -0.32
vn -0.31 0.01 0.95
vn -0.32 0.04 0.95
vn 0.31 -0.1 -0.94
vn -0.92 0.22 -0.34
vn -0.32 0.08 0.95
vn -0.3 -0.02 0.95
vn -0.27 -0.01 0.96
vn -0.96 -0.1 -0.25
vn 0.96 0.09 0.25
vn -0.01 0.01 -1.0
vn 0.07 -0.07 1.0
vn 0.03 -0.04 -1.0
vn 0.0 -0.02 1.0
vn 0.03 -0.04 1.0
vn 0.03 0.11 0.99
vn 0.0 0.07 -1.0
vn 0.0 0.07 1.0
vn -0.03 0.13 0.99
vn 0.07 0.06 1.0
vn 0.08 -0.03 1.0
vn 0.02 -0.01 -1.0
vn 0.05 -0.02 1.0
vn -0.01 0.0 -1.0
vn 0.08 -0.03 -1.0
vn -0.01 0.0 1.0
vn -0.04 -0.01 1.0
vn 0.09 0.26 -0.96
vn -0.26 0.09 -0.96
vn 0.26 -0.09 -0.96
vn -0.09 -0.26 -0.96
vn -0.06 0.19 -0.98
vn -0.15 -0.05 -0.99
vn 0.15 0.05 -0.99
vn 0.06 -0.19 -0.98
vn 0.09 0.26 0.96
vn -0.26 0.09 0.96
vn 0.26 -0.09 0.96
vn -0.09 -0.26 0.96
vn -0.15 -0.05 0.99
vn 0.15 0.05 0.99
vn 0.06 -0.19 0.98
vn -0.65 0.76 0.0
vn 0.65 -0.76 0.0
vn 0.63 -0.77 0.0
vn -0.95 -0.26 -0.2
vn -0.48 -0.8 -0.36
vn -0.87 -0.33 0.36
vn -0.4 -0.84 0.36
vn -0.63 0.77 0.0
vn -0.76 -0.57 -0.32
vn -0.7 -0.63 0.32
vn 0.02 -0.03 1.0
vn 0.05 -0.06 -1.0
vn -0.3 0.0 -0.95
vn -0.01 -1.0 0.0
vn -0.05 -0.29 0.96
vn -0.33 -0.27 -0.91
vn -0.33 -0.27 0.91
vn -0.14 0.1 -0.99
vn 0.55 -0.83 0.0
vn -0.14 0.1 0.99
vn 0.08 -0.16 0.98
vn 0.77 0.63 0.0
vn -0.77 -0.63 0.0
vn 0.03 -1.0 0.0
vn -0.01 1.0 0.0
vn 0.05 -1.0 0.0
vn 0.0 -0.05 -1.0
vn -0.06 1.0 0.0
vn -0.0 0.04 1.0
vn 0.09 -1.0 0.0
vn 0.12 -0.99 0.0
vn -0.09 1.0 0.0
vn 1.0 0.0 0.0
vn 0.01 -0.62 0.78
vn -0.01 0.62 0.78
vn 0.01 -0.62 -0.78
vn -0.01 0.62 -0.78
vn 0.0 0.03 -1.0
vn -0.03 0.63 0.78
vn 0.03 -0.63 0.78
vn 0.02 -0.68 -0.73
vn 0.0 -0.08 1.0
vn -0.15 0.99 0.0
vn -0.05 0.63 0.78
vn 0.06 -0.63 0.78
vn -0.09 0.67 0.74
vn 0.06 -0.63 -0.78
vn -0.05 0.63 -0.78
vn -0.08 0.63 -0.78
vn 0.03 -0.54 -0.84
vn 0.03 -0.63 -0.78
vn -0.08 0.49 0.87
vn -0.1 0.61 -0.78
vn -0.69 -0.08 0.72
vn 0.03 -0.54 0.84
vn 0.18 -0.81 0.56
vn -0.94 -0.12 0.32
vn 0.1 -0.62 0.77
vn 0.17 -0.58 0.79
vn 0.18 -0.21 0.96
vn 0.48 -0.88 0.0
vn 0.27 -0.61 0.75
vn -0.18 -0.04 0.98
vn -0.44 0.01 0.9
vn -0.12 -0.01 0.99
vn -0.72 -0.29 0.63
vn 0.19 -0.5 0.84
vn 0.08 -0.73 0.68
vn -0.36 -0.69 0.63
vn 0.28 -0.77 0.57
vn -0.12 -0.81 0.58
vn -0.07 -1.0 0.0
vn -0.43 -0.56 0.71
vn -0.65 -0.72 0.23
vn 0.06 -0.82 0.57
vn -0.94 -0.35 0.0
vn -0.03 -0.57 0.82
vn -0.76 -0.58 0.31
vn -0.07 -0.84 0.54
vn -0.17 -0.57 0.81
vn -0.14 -0.98 0.11
vn -0.25 0.95 0.21
vn -0.1 0.58 0.81
vn -0.04 0.83 0.56
vn -0.04 0.58 0.81
vn -0.81 0.51 0.29
vn 0.02 0.61 0.79
vn 0.25 0.97 0.0
vn 0.11 0.65 0.75
vn -0.19 0.0 0.98
vn -0.43 -0.12 0.9
vn -0.77 0.1 0.63
vn 0.07 0.53 0.84
vn -0.1 0.73 0.68
vn -0.52 0.58 0.63
vn 0.09 0.82 0.57
vn -0.31 0.75 0.58
vn -0.31 0.95 0.0
vn -0.96 0.28 0.0
vn -0.81 0.54 0.23
vn -0.14 0.81 0.57
vn -0.6 0.41 0.68
vn -0.99 0.12 0.0
vn -0.87 0.38 0.31
vn -0.27 0.8 0.54
vn -0.3 0.51 0.81
vn -0.37 0.92 0.11
vn -0.58 0.66 0.47
vn -0.84 0.54 0.0
vn -0.69 -0.08 -0.72
vn -0.08 -0.01 -1.0
vn -0.94 -0.12 -0.32
vn 0.17 -0.58 -0.79
vn 0.18 -0.21 -0.96
vn 0.27 -0.61 -0.75
vn -0.18 -0.04 -0.98
vn -0.44 0.01 -0.9
vn -0.12 -0.01 -0.99
vn 0.07 -0.07 -1.0
vn 0.19 -0.5 -0.84
vn 0.08 -0.73 -0.68
vn -0.12 -0.81 -0.58
vn -0.43 -0.56 -0.71
vn -0.48 -0.55 -0.68
vn -0.03 -0.57 -0.82
vn -0.07 -0.84 -0.54
vn -0.17 -0.57 -0.81
vn -0.41 -0.78 -0.47
vn -0.1 0.58 -0.81
vn -0.04 0.58 -0.81
vn -0.81 0.51 -0.29
vn 0.02 0.61 -0.79
vn 0.11 0.65 -0.75
vn -0.19 0.0 -0.98
vn -0.43 -0.12 -0.9
vn 0.07 0.53 -0.84
vn -0.1 0.73 -0.68
vn -0.31 0.75 -0.58
vn -0.6 0.41 -0.68
vn -0.87 0.38 -0.31
vn -0.27 0.8 -0.54
vn -0.3 0.51 -0.81
vn 0.79 0.03 -0.61
vn 0.85 -0.1 0.52
vn 0.01 -0.88 0.48
vn -0.03 0.88 -0.47
vn 0.46 0.64 -0.61
vn 0.6 0.61 0.52
vn 0.7 -0.53 0.48
vn -0.72 0.52 -0.47
vn 0.1 0.99 -0.06
vn 0.1 0.99 0.06
vn -0.09 -1.0 0.0
vn 0.75 -0.26 -0.61
vn 0.76 -0.4 0.52
vn -0.28 -0.82 0.49
vn 0.26 0.85 -0.45
vn -0.06 -0.01 -1.0
vn 0.67 0.74 -0.07
vn 0.03 0.06 1.0
vn 0.79 0.6 -0.11
vn 0.5 0.86 0.0
vn -0.55 -0.84 0.03
vn -0.68 -0.66 0.32
vn -0.23 -0.2 -0.95
vn -0.22 -0.24 -0.95
vn 0.17 0.29 0.94
vn -0.54 -0.77 0.34
vn -0.19 -0.27 -0.94
vn -0.25 -0.16 -0.96
vn -0.22 -0.13 -0.97
vn -0.81 -0.53 0.26
vn 0.77 0.58 -0.25
vn 0.44 0.44 -0.79
vn 0.47 -0.42 0.78
vn 0.44 0.44 0.79
vn -0.1 -0.99 0.1
vn -0.02 0.73 -0.68
vn 0.02 -0.73 -0.68
vn 0.14 -0.68 0.72
vn -0.02 0.73 0.68
vn -0.39 -0.92 0.0
vn -0.27 -0.01 -0.96
vn -0.42 0.91 0.0
vn -0.32 -0.47 0.82
vn -0.34 0.45 0.83
vn -0.32 -0.47 -0.82
vn -0.34 0.45 -0.83
vn 0.46 -0.89 0.0
vn 0.44 0.89 -0.14
vn 0.04 0.0 1.0
vn 0.24 0.94 0.23
vn 0.04 -0.73 0.68
vn -0.07 0.68 0.73
vn 0.04 -0.73 -0.68
vn 0.02 0.73 -0.68
vn 0.0 -0.05 1.0
vn -0.64 -0.1 0.76
vn -0.52 -0.85 0.0
vn -0.64 -0.1 -0.76
vn -0.76 0.65 0.0
vn -0.99 -0.16 0.0
vn -0.12 0.99 0.0
vn 0.93 0.02 -0.37
vn 0.02 -0.68 0.73
vn -0.01 0.58 0.82
vn -0.01 0.58 -0.82
vn 0.02 1.0 0.0
vn -0.16 -0.02 0.99
vn -0.12 0.67 0.73
vn 0.08 -0.68 0.73
vn -0.16 -0.02 -0.99
vn -0.12 0.67 -0.73
vn -0.28 0.96 0.0
vn -0.91 -0.14 0.39
vn -0.61 0.35 0.71
vn -0.47 -0.53 0.71
vn -0.47 -0.53 -0.71
vn -0.91 -0.14 -0.39
vn -0.61 0.35 -0.71
vn -0.99 0.14 0.0
vn 0.07 -0.63 0.77
vn 0.07 -0.63 -0.77
vn -0.07 0.68 -0.73
vn 0.98 0.02 -0.21
vn 0.94 0.24 -0.22
vn 0.98 0.02 0.21
vn 0.98 0.22 0.0
vn 0.03 0.63 0.77
vn -0.02 0.7 0.71
vn 0.02 -0.56 0.83
vn 0.02 -0.56 -0.83
vn 0.03 0.63 -0.77
vn -0.02 0.7 -0.71
vn -0.08 0.63 0.77
vn -0.25 0.59 0.77
vn -0.06 -0.64 0.77
vn -0.06 -0.64 -0.77
vn -0.25 0.59 -0.77
vn -0.94 0.1 0.34
vn -0.86 -0.39 0.34
vn -0.86 -0.39 -0.34
vn -0.94 0.1 -0.34
vn -0.05 0.55 0.83
vn -0.05 0.55 -0.83
vn 0.97 0.12 0.19
vn 0.98 -0.09 0.19
vn 0.98 -0.09 -0.19
vn 0.97 0.12 -0.19
vn 0.01 -1.0 0.0
vn 0.0 1.0 0.0
vn 0.76 -0.61 -0.23
vn 0.78 0.48 -0.41
vn 0.78 -0.47 0.4
vn 0.7 0.59 0.41
vn 0.96 -0.16 -0.24
vn 0.92 0.08 0.39
vn 0.0 0.09 1.0
vn 0.0 0.09 -1.0
vn 0.16 -0.25 -0.95
vn 0.44 0.9 0.0
vn 0.16 -0.25 0.95
vn 0.16 0.26 0.95
vn 0.32 0.0 -0.95
vn 0.32 0.0 0.95
vn 0.05 -0.22 -0.97
vn 0.05 1.0 0.0
vn 0.05 -0.22 0.97
vn 0.03 0.22 0.97
vn -1.0 0.0 0.0
vn -0.03 0.06 -1.0
vn -0.03 0.06 1.0
vn -0.09 0.06 0.99
vn 0.08 -0.2 -0.98
vn -0.01 -0.17 -0.99
vn 0.06 -0.12 -0.99
vn 0.06 -0.12 0.99
vn 0.58 0.81 0.0
vn -0.07 -0.11 -0.99
vn 0.67 0.74 0.0
vn 0.79 0.62 0.0
vn 0.74 0.68 0.0
vn -0.09 -0.08 -0.99
vn -0.09 -0.06 -0.99
vn -0.09 -0.06 0.99
vn -0.17 -0.11 -0.98
vn 0.15 0.1 -0.98
vn 0.15 0.1 0.98
vn -0.17 -0.11 0.98
vn 0.58 -0.48 -0.66
vn 0.61 -0.5 -0.61
vn 0.59 -0.52 0.61
vn -0.59 0.54 -0.6
vn 0.59 -0.54 0.6
vn -0.55 0.59 0.59
vn -0.53 0.6 0.59
vn 0.55 -0.59 -0.59
vn 0.52 -0.62 -0.59
vn 0.49 -0.64 0.59
vn -0.5 -0.49 -0.71
vn -0.41 0.66 -0.63
vn -0.5 -0.49 0.71
vn -0.28 0.66 0.7
vn -0.69 0.01 0.72
vn -0.63 -0.49 0.6
vn -0.52 0.48 0.7
vn -0.6 0.5 0.62
vn -0.78 -0.09 0.62
vn -0.49 0.48 0.73
vn -0.28 0.7 0.65
vn -0.41 0.66 0.63
vn -0.36 0.61 0.71
vn 0.52 -0.47 0.71
vn 0.38 -0.65 0.66
vn 0.77 -0.21 0.6
vn 0.6 -0.33 0.72
vn -0.02 -0.73 0.68
vn 0.41 -0.68 0.61
vn -0.1 -0.81 0.58
vn 0.41 -0.56 0.72
vn 0.64 -0.36 0.68
vn -0.02 -0.77 -0.63
vn -0.88 -0.12 0.45
vn -0.98 -0.13 -0.17
vn -0.88 -0.12 -0.45
vn 0.06 -0.89 0.45
vn -0.15 0.86 -0.49
vn 0.98 0.04 -0.18
vn 0.2 -0.84 0.51
vn 0.88 0.04 0.48
vn -0.86 0.03 0.5
vn -0.52 0.54 0.66
vn 0.51 -0.55 -0.66
vn -0.63 -0.47 -0.62
vn -0.59 -0.62 0.52
vn 0.97 -0.04 0.25
vn -0.03 0.13 -0.99
vn -0.96 0.25 0.09
vn -0.96 0.26 0.07
vn -0.96 0.25 0.11
vn 0.04 0.75 0.66
vn -0.05 -0.75 -0.66
vn -0.77 0.14 -0.62
vn -0.85 0.01 0.52
vn -0.67 0.33 0.67
vn 0.67 -0.36 -0.64
vn -0.54 -0.59 -0.6
vn -0.47 -0.71 0.53
vn 0.97 -0.23 0.03
vn -0.95 -0.1 -0.29
vn 0.32 -0.06 -0.94
vn 0.31 -0.03 -0.95
vn 0.99 0.05 0.15
vn -0.99 -0.08 -0.11
vn -0.99 0.13 -0.04
vn -0.99 0.03 -0.1
vn -0.98 -0.08 -0.16
vn -0.97 0.24 0.01
vn -0.91 0.21 -0.36
vn 0.91 -0.23 0.34
vn 0.95 0.02 0.3
vn 0.94 -0.09 0.34
vn 0.9 -0.23 0.36
vn 0.29 -0.08 -0.95
vn 0.7 -0.68 0.21
vn 0.68 0.7 0.21
vn 0.7 0.71 0.08
vn -0.69 0.68 0.23
vn -0.69 0.68 0.26
vn -0.69 -0.7 0.2
vn -0.7 -0.71 0.01
vn 0.7 -0.69 -0.19
vn 0.69 0.7 -0.19
vn -0.69 0.68 -0.24
vn -0.7 0.68 -0.21
vn -0.69 -0.7 -0.19
vn -0.69 -0.7 -0.17
vn -0.94 -0.33 0.0
vn -0.21 -0.06 -0.98
vn -0.28 0.02 -0.96
vn -0.67 0.74 0.0
vn 0.03 0.11 -0.99
vn -0.03 0.08 -1.0
vn -0.03 0.08 1.0
vn 0.07 0.06 -1.0
vn -0.95 0.3 0.0
vn -0.73 -0.69 0.0
vn -0.93 0.38 0.0
vn 0.92 0.39 0.0
vn 0.05 -0.06 1.0
vn 0.11 -0.13 -0.99
vn -0.09 0.11 0.99
vn 0.11 -0.13 0.99
vn 0.25 -0.97 0.0
vn -0.05 -0.29 -0.96
vn -0.49 -0.11 -0.87
vn -0.99 0.16 0.0
vn -0.92 0.4 0.0
vn 0.08 -0.16 -0.98
vn -0.73 0.68 0.0
vn -0.36 0.24 0.9
vn 0.22 -0.98 0.0
vn -0.36 0.24 -0.9
vn 0.28 -0.77 -0.57
vn -0.36 -0.69 -0.63
vn -0.72 -0.29 -0.63
vn 0.06 -0.82 -0.57
vn 0.27 -0.81 -0.52
vn 0.1 -0.89 -0.44
vn 0.09 0.82 -0.57
vn -0.52 0.58 -0.63
vn -0.77 0.1 -0.63
vn -0.27 0.77 -0.58
vn -0.12 0.89 -0.44
vn -0.78 -0.04 0.62
vn -0.85 0.09 -0.52
vn -0.57 -0.82 -0.09
vn -0.57 -0.82 -0.07
vn -0.57 -0.82 -0.11
vn 0.56 -0.5 -0.66
vn -0.57 0.49 0.66
vn -0.44 -0.65 0.62
vn -0.59 -0.62 -0.52
vn -0.3 -0.68 -0.67
vn 0.28 0.71 0.64
vn -0.79 0.1 0.6
vn -0.81 0.24 -0.53
vn 0.52 0.86 -0.03
vn -0.06 0.02 -1.0
vn -0.8 -0.53 0.29
vn 0.2 0.27 0.94
vn 0.19 0.25 0.95
vn 0.79 0.6 -0.15
vn -0.81 -0.57 0.11
vn -0.65 -0.76 0.04
vn -0.73 -0.67 0.1
vn -0.8 -0.57 0.16
vn -0.55 -0.83 -0.01
vn -0.53 -0.77 0.36
vn 0.52 0.79 -0.34
vn 0.73 0.61 -0.3
vn 0.65 0.68 -0.34
vn 0.52 0.78 -0.36
vn 0.13 0.29 0.95
vn 0.09 0.98 -0.19
vn 0.99 -0.1 -0.06
vn -0.09 -0.97 -0.21
vn -0.09 -0.97 -0.24
vn -0.98 0.09 -0.17
vn -0.98 0.09 -0.19
vn -1.0 0.09 0.0
vn 0.09 0.98 0.19
vn -0.09 -0.97 0.24
vn -0.09 -0.97 0.21
vn -0.98 0.09 0.19
vn -0.98 0.09 0.17
vn -0.39 0.83 -0.41
vn 0.08 0.63 -0.77
vn 0.08 0.63 0.77
vn 0.07 1.0 0.0
vn 0.0 0.22 -0.98
vn 0.0 -0.2 -0.98
vn 0.0 -0.2 0.98
vn 0.0 0.22 0.98
vn 0.27 0.96 0.0
vn 0.16 0.26 -0.95
vn 0.32 -0.3 -0.9
vn 0.3 -0.95 0.0
vn 0.03 0.22 -0.97
vn -0.09 0.06 -0.99
vn -0.09 0.04 -1.0
vn -0.06 0.02 1.0
vn -0.09 0.04 1.0
vn -0.01 0.12 -0.99
# 800 normal vertices

g item_blade
s 1
f 9/3/8 7/2/6 11/1/9
f 7/2/601 8/4/7 11/1/600
f 6/6/602 10/5/600 11/1/600
f 8/4/7 6/6/602 11/1/600
f 6/6/603 9/3/8 11/1/9
f 10/5/9 6/6/603 11/1/9
f 8/4/7 14/8/13 12/7/10
f 15/8/14 9/3/8 12/7/12
f 9/3/8 15/8/14 13/10/11
f 7/2/6 9/3/8 13/10/11
f 8/4/7 7/2/601 13/10/605
f 14/8/13 8/4/7 13/10/605
f 12/7/10 14/8/13 18/11/13
f 16/12/1 12/7/10 18/11/13
f 15/8/14 12/7/12 16/12/3
f 19/11/14 15/8/14 16/12/3
f 13/10/11 15/8/14 19/11/14
f 17/13/15 13/10/11 19/11/14
f 14/8/13 13/10/605 17/13/122
f 18/11/13 14/8/13 17/13/122
f 22/16/16 4/15/4 1/14/1
f 20/17/1 22/16/16 1/14/1
f 16/12/1 18/11/13 22/16/16
f 20/17/1 16/12/1 22/16/16
f 20/17/3 3/14/3 5/15/5
f 23/16/17 20/17/3 5/15/5
f 19/11/14 16/12/3 20/17/3
f 23/16/17 19/11/14 20/17/3
f 20/17/608 1/14/607 3/14/607
f 23/16/17 5/15/5 2/18/2
f 21/19/2 23/16/17 2/18/2
f 17/13/15 19/11/14 23/16/17
f 21/19/2 17/13/15 23/16/17
f 21/19/609 2/18/609 4/15/4
f 22/16/16 21/19/609 4/15/4
f 18/11/13 17/13/122 21/19/609
f 22/16/16 18/11/13 21/19/609
f 25/22/19 24/21/18 28/20/22
f 29/23/23 25/22/19 28/20/22
f 27/24/21 25/22/19 29/23/23
f 31/25/25 27/24/21 29/23/23
f 26/26/20 27/24/21 31/25/25
f 30/27/24 26/26/20 31/25/25
f 24/21/18 26/26/20 30/27/24
f 28/20/22 24/21/18 30/27/24
f 30/30/24 31/29/25 29/28/23
f 28/31/22 30/30/24 29/28/23
f 32/34/30 24/33/26 25/32/27
f 33/35/31 32/34/30 25/32/27
f 33/35/31 25/32/27 27/36/29
f 35/37/33 33/35/31 27/36/29
f 35/37/33 27/36/29 26/38/28
f 34/39/32 35/37/33 26/38/28
f 34/39/32 26/38/28 24/33/26
f 32/34/30 34/39/32 24/33/26
f 33/30/31 35/29/33 34/28/32
f 32/31/30 33/30/31 34/28/32
f 36/42/34 38/41/34 42/40/34
f 40/43/34 36/42/34 42/40/34
f 39/46/35 37/45/35 41/44/35
f 43/47/35 39/46/35 41/44/35
f 37/45/610 44/49/16 46/48/37
f 41/44/610 37/45/610 46/48/37
f 44/49/16 36/42/281 40/43/281
f 46/48/37 44/49/16 40/43/281
f 38/41/46 45/51/36 47/50/5
f 42/40/46 38/41/46 47/50/5
f 45/51/36 39/46/611 43/47/611
f 47/50/5 45/51/36 43/47/611
f 43/47/59 41/44/59 46/48/59
f 40/43/59 43/47/59 46/48/59
f 47/50/59 43/47/59 40/43/59
f 42/40/59 47/50/59 40/43/59
f 48/54/34 54/53/34 58/52/34
f 56/55/34 48/54/34 58/52/34
f 55/58/35 49/57/35 57/56/35
f 59/59/35 55/58/35 57/56/35
f 57/56/612 49/57/612 61/60/45
f 61/61/16 48/63/613 56/62/613
f 58/52/614 54/53/614 63/64/46
f 63/65/44 55/58/615 59/59/615
f 75/68/59 74/67/59 86/66/59
f 77/67/59 76/70/59 86/69/59
f 78/71/59 77/67/59 86/69/59
f 80/67/59 79/73/59 86/72/59
f 81/68/59 80/67/59 86/72/59
f 83/67/59 82/75/59 86/74/59
f 84/68/59 83/67/59 86/74/59
f 74/67/59 85/76/59 86/66/59
f 74/78/60 75/77/60 87/66/60
f 76/80/60 77/67/60 87/79/60
f 77/67/60 78/81/60 87/79/60
f 79/75/60 80/67/60 87/72/60
f 80/67/60 81/68/60 87/72/60
f 82/83/60 83/67/60 87/82/60
f 83/67/60 84/84/60 87/82/60
f 85/81/60 74/78/60 87/66/60
f 86/66/59 88/85/59 75/68/59
f 86/69/59 76/70/59 88/86/59
f 86/69/59 89/87/59 78/71/59
f 86/72/59 79/73/59 89/88/59
f 86/72/59 90/89/59 81/68/59
f 86/74/59 82/75/59 90/90/59
f 86/74/59 91/91/59 84/68/59
f 86/66/59 85/76/59 91/92/59
f 87/79/60 88/86/60 76/80/60
f 87/66/60 75/77/60 88/93/60
f 87/72/60 89/88/60 79/75/60
f 87/79/60 78/81/60 89/87/60
f 87/82/60 90/94/60 82/83/60
f 87/72/60 81/68/60 90/89/60
f 87/66/60 91/95/60 85/81/60
f 87/82/60 84/84/60 91/91/60
f 12/7/12 9/3/8 6/9/603
f 12/7/10 6/9/602 8/4/7
f 116/98/75 92/97/61 113/96/61
f 156/99/101 116/98/75 113/96/61
f 113/96/61 92/97/61 114/100/74
f 158/101/74 113/96/61 114/100/74
f 114/100/74 92/97/61 115/102/61
f 159/103/74 114/100/74 115/102/61
f 115/102/61 92/97/61 116/98/75
f 157/104/101 115/102/61 116/98/75
f 114/100/74 93/106/62 117/105/62
f 158/101/74 114/100/74 117/105/62
f 117/105/77 93/106/77 118/100/76
f 160/101/76 117/105/77 118/100/76
f 118/100/76 93/106/77 119/107/77
f 161/103/102 118/100/76 119/107/77
f 119/107/62 93/106/62 114/100/74
f 159/103/74 119/107/62 114/100/74
f 118/100/76 94/97/63 120/96/63
f 160/101/76 118/100/76 120/96/63
f 120/96/63 94/97/63 121/98/78
f 162/99/103 120/96/63 121/98/78
f 121/98/78 94/97/63 122/102/79
f 163/104/103 121/98/78 122/102/79
f 122/102/79 94/97/63 118/100/76
f 161/103/102 122/102/79 118/100/76
f 121/98/78 95/109/64 123/108/80
f 162/99/103 121/98/78 123/108/80
f 123/108/617 95/109/616 116/98/75
f 156/99/101 123/108/617 116/98/75
f 116/98/75 95/109/616 124/110/81
f 157/104/101 116/98/75 124/110/81
f 124/110/618 95/109/64 121/98/78
f 163/104/103 124/110/618 121/98/78
f 127/113/83 96/112/61 125/111/61
f 165/114/83 127/113/83 125/111/61
f 125/111/61 96/112/61 126/115/82
f 164/116/82 125/111/61 126/115/82
f 126/115/82 96/112/61 115/102/61
f 157/104/101 126/115/82 115/102/61
f 115/102/61 96/112/61 127/113/83
f 159/103/74 115/102/61 127/113/83
f 129/113/85 97/118/65 128/117/84
f 166/114/95 129/113/85 128/117/84
f 128/117/69 97/118/619 127/113/83
f 165/114/83 128/117/69 127/113/83
f 127/113/83 97/118/619 119/107/62
f 159/103/74 127/113/83 119/107/62
f 119/107/77 97/118/65 129/113/85
f 161/103/102 119/107/77 129/113/85
f 131/115/86 98/112/66 130/111/63
f 167/116/86 131/115/86 130/111/63
f 130/111/63 98/112/66 129/113/85
f 166/114/95 130/111/63 129/113/85
f 98/112/66 122/102/79 161/103/102
f 129/113/85 98/112/66 161/103/102
f 122/102/79 98/112/66 131/115/86
f 163/104/103 122/102/79 131/115/86
f 126/115/82 99/120/67 132/119/87
f 164/116/82 126/115/82 132/119/87
f 132/119/71 99/120/620 131/115/86
f 167/116/86 132/119/71 131/115/86
f 131/115/86 99/120/620 124/110/618
f 163/104/103 131/115/86 124/110/618
f 124/110/81 99/120/67 126/115/82
f 157/104/101 124/110/81 126/115/82
f 139/123/61 100/122/61 137/121/91
f 172/124/91 139/123/61 137/121/91
f 137/121/91 100/122/61 125/111/61
f 164/116/82 137/121/91 125/111/61
f 125/111/61 100/122/61 138/125/92
f 165/114/83 125/111/61 138/125/92
f 138/125/92 100/122/61 139/123/61
f 173/126/93 138/125/92 139/123/61
f 141/128/94 101/127/68 139/123/61
f 172/124/91 141/128/94 139/123/61
f 139/123/61 101/127/68 140/129/93
f 173/126/93 139/123/61 140/129/93
f 140/129/93 101/127/68 133/130/88
f 169/131/93 140/129/93 133/130/88
f 101/127/68 141/128/94 168/132/104
f 133/130/88 101/127/68 168/132/104
f 143/134/96 102/133/69 138/125/92
f 173/126/93 143/134/96 138/125/92
f 138/125/92 102/133/69 128/117/69
f 165/114/83 138/125/92 128/117/69
f 128/117/84 102/133/84 142/125/95
f 166/114/95 128/117/84 142/125/95
f 142/125/95 102/133/84 143/134/621
f 174/126/97 142/125/95 143/134/621
f 140/129/93 103/135/70 143/134/96
f 173/126/93 140/129/93 143/134/96
f 143/134/621 103/135/622 144/129/97
f 174/126/97 143/134/621 144/129/97
f 144/129/97 103/135/622 134/136/89
f 170/131/97 144/129/97 134/136/89
f 134/136/70 103/135/70 140/129/93
f 169/131/93 134/136/70 140/129/93
f 146/123/63 104/122/63 142/125/95
f 174/126/97 146/123/63 142/125/95
f 142/125/95 104/122/63 130/111/63
f 166/114/95 142/125/95 130/111/63
f 130/111/63 104/122/63 145/121/98
f 167/116/86 130/111/63 145/121/98
f 145/121/98 104/122/63 146/123/63
f 175/124/98 145/121/98 146/123/63
f 144/129/97 105/127/63 146/123/63
f 174/126/97 144/129/97 146/123/63
f 146/123/63 105/127/63 147/128/99
f 175/124/98 146/123/63 147/128/99
f 147/128/99 105/127/63 135/130/5
f 171/132/105 147/128/99 135/130/5
f 135/130/5 105/127/63 144/129/97
f 170/131/97 135/130/5 144/129/97
f 148/138/100 106/137/71 145/121/98
f 175/124/98 148/138/100 145/121/98
f 145/121/98 106/137/71 132/119/71
f 167/116/86 145/121/98 132/119/71
f 132/119/87 106/137/87 137/121/91
f 164/116/82 132/119/87 137/121/91
f 137/121/91 106/137/87 148/138/623
f 172/124/91 137/121/91 148/138/623
f 147/128/99 107/139/72 148/138/100
f 175/124/98 147/128/99 148/138/100
f 148/138/623 107/139/624 141/128/94
f 172/124/91 148/138/623 141/128/94
f 141/128/94 107/139/624 136/140/90
f 168/132/104 141/128/94 136/140/90
f 136/140/625 107/139/72 147/128/99
f 171/132/105 136/140/625 147/128/99
f 108/142/73 149/142/73 177/141/73
f 151/143/73 108/142/73 177/141/73
f 108/142/73 150/144/73 178/142/73
f 149/142/73 108/142/73 178/142/73
f 150/144/103 108/142/63 120/96/63
f 162/99/103 150/144/103 120/96/63
f 120/96/63 108/142/63 151/143/76
f 160/101/76 120/96/63 151/143/76
f 153/143/73 109/145/73 177/143/73
f 177/143/73 109/145/73 151/143/73
f 151/143/76 109/145/77 117/105/77
f 160/101/76 151/143/76 117/105/77
f 117/105/62 109/145/62 153/143/74
f 158/101/74 117/105/62 153/143/74
f 110/142/73 112/142/73 176/142/73
f 154/144/73 110/142/73 176/142/73
f 110/142/73 153/143/73 152/141/73
f 112/142/73 110/142/73 152/141/73
f 153/143/74 110/142/61 113/96/61
f 158/101/74 153/143/74 113/96/61
f 113/96/61 110/142/61 154/144/101
f 156/99/101 113/96/61 154/144/101
f 150/144/73 111/146/73 155/144/73
f 178/142/73 150/144/73 155/144/73
f 155/144/73 111/146/73 154/144/73
f 176/142/73 155/144/73 154/144/73
f 154/144/101 111/146/617 123/108/617
f 156/99/101 154/144/101 123/108/617
f 123/108/80 111/146/80 150/144/103
f 162/99/103 123/108/80 150/144/103
f 155/149/73 149/148/73 178/147/73
f 149/148/73 155/149/73 176/147/73
f 185/153/110 179/152/16 183/151/109
f 184/154/61 179/152/16 185/153/110
f 187/155/113 184/154/61 185/153/110
f 196/160/122 184/154/61 194/159/120
f 194/159/120 184/154/61 187/155/113
f 195/161/121 194/159/120 187/155/113
f 191/164/117 189/163/115 198/162/124
f 190/165/116 191/164/117 198/162/124
f 190/165/116 198/162/124 194/166/125
f 189/163/115 196/160/122 198/162/124
f 198/162/124 196/160/122 194/166/125
f 192/169/118 193/168/119 195/167/126
f 194/166/125 195/167/126 193/168/119
f 190/165/116 194/166/125 193/168/119
f 192/169/118 195/167/126 200/170/128
f 195/167/126 199/171/127 200/170/128
f 199/171/127 195/167/626 197/172/123
f 185/153/110 203/174/131 180/173/106
f 188/156/114 204/175/132 181/158/107
f 183/151/109 181/158/107 204/175/132
f 183/151/109 204/175/132 202/176/130
f 205/177/133 188/156/114 181/157/112
f 182/157/108 205/177/133 181/157/112
f 203/174/131 185/153/110 201/178/129
f 208/179/136 206/180/134 207/181/135
f 209/182/138 208/179/136 207/181/135
f 202/176/141 209/182/138 201/178/140
f 207/181/135 201/178/140 209/182/138
f 188/156/139 208/179/136 204/175/143
f 208/179/136 209/182/138 202/176/141
f 204/175/143 208/179/136 202/176/141
f 188/156/139 205/177/144 208/156/137
f 207/181/135 203/174/142 201/178/140
f 197/172/627 195/161/70 187/155/113
f 186/183/111 197/172/627 187/155/113
f 179/152/16 211/153/146 183/151/109
f 179/152/16 184/154/61 211/153/146
f 184/154/61 213/155/148 211/153/146
f 210/173/145 211/153/146 212/183/147
f 211/153/146 213/155/148 212/183/147
f 184/154/61 196/160/122 219/159/154
f 184/154/61 219/159/154 213/155/148
f 219/159/154 220/161/155 213/155/148
f 216/164/151 215/165/150 189/162/157
f 189/162/157 215/165/150 219/166/158
f 196/160/122 189/162/157 219/166/158
f 218/168/153 217/169/152 220/167/159
f 220/167/159 219/166/158 218/168/153
f 219/166/158 215/165/150 218/168/153
f 220/167/159 217/169/152 223/170/161
f 222/171/160 220/167/159 223/170/161
f 220/167/544 222/171/160 221/172/156
f 226/174/164 211/153/146 210/173/145
f 227/175/165 214/156/149 181/158/107
f 181/158/107 183/151/109 227/175/165
f 227/175/165 183/151/109 225/176/163
f 214/156/149 228/177/166 181/157/112
f 228/177/166 182/157/108 181/157/112
f 211/153/146 226/174/164 224/178/162
f 229/180/167 231/179/169 230/181/168
f 231/179/169 232/182/171 230/181/168
f 232/182/171 225/176/174 224/178/173
f 224/178/173 230/181/168 232/182/171
f 231/179/169 214/156/172 227/175/176
f 232/182/171 231/179/169 225/176/174
f 231/179/169 227/175/176 225/176/174
f 228/177/177 214/156/172 231/156/170
f 226/174/175 230/181/168 224/178/173
f 220/161/155 221/172/156 213/155/148
f 221/172/156 212/183/147 213/155/148
f 233/152/5 237/153/180 235/151/179
f 233/152/5 236/154/63 237/153/180
f 236/154/63 238/155/182 237/153/180
f 236/154/63 246/160/15 244/159/188
f 236/154/63 244/159/188 238/155/182
f 244/159/188 245/161/189 238/155/182
f 240/163/184 242/164/186 247/162/190
f 242/164/186 241/165/185 247/162/190
f 247/162/190 241/165/185 244/166/191
f 246/160/15 240/163/184 247/162/190
f 246/160/15 247/162/190 244/166/191
f 243/168/187 192/169/427 245/167/192
f 245/167/192 244/166/191 243/168/187
f 244/166/191 241/165/185 243/168/187
f 245/167/192 192/169/427 200/170/629
f 199/171/630 245/167/192 200/170/629
f 245/167/628 199/171/630 197/172/631
f 203/174/633 237/153/180 180/173/632
f 250/175/195 239/156/183 234/158/178
f 234/158/178 235/151/179 250/175/195
f 250/175/195 235/151/179 249/176/194
f 239/156/183 205/177/133 234/157/181
f 205/177/133 182/157/108 234/157/181
f 237/153/180 203/174/633 248/178/193
f 206/180/634 208/156/137 251/179/196
f 208/156/137 239/156/198 251/179/196
f 206/180/634 251/179/196 207/181/635
f 251/179/196 252/182/197 207/181/635
f 252/182/197 249/176/200 248/178/199
f 248/178/199 207/181/635 252/182/197
f 251/179/196 239/156/198 250/175/201
f 252/182/197 251/179/196 249/176/200
f 251/179/196 250/175/201 249/176/200
f 205/177/144 239/156/198 208/156/137
f 203/174/636 207/181/635 248/178/199
f 245/161/622 197/172/637 238/155/182
f 197/172/637 186/183/638 238/155/182
f 253/153/202 233/152/5 235/151/179
f 236/154/63 233/152/5 253/153/202
f 254/155/203 236/154/63 253/153/202
f 253/153/202 210/173/640 212/183/639
f 254/155/203 253/153/202 212/183/639
f 246/159/208 236/154/63 254/155/203
f 260/161/209 246/159/208 254/155/203
f 256/165/205 257/164/206 240/162/210
f 256/165/205 240/162/210 259/166/211
f 217/169/641 258/168/207 260/167/212
f 259/166/211 260/167/212 258/168/207
f 256/165/205 259/166/211 258/168/207
f 217/169/641 260/167/212 223/170/642
f 260/167/212 222/171/643 223/170/642
f 222/171/643 260/167/543 221/172/537
f 253/153/202 226/174/644 210/173/640
f 255/156/204 263/175/215 234/158/178
f 235/151/179 234/158/178 263/175/215
f 235/151/179 263/175/215 262/176/214
f 228/177/166 255/156/204 234/157/181
f 182/157/108 228/177/166 234/157/181
f 226/174/644 253/153/202 261/178/213
f 231/156/170 229/180/645 264/179/216
f 255/156/218 231/156/170 264/179/216
f 264/179/216 229/180/645 230/181/646
f 265/182/217 264/179/216 230/181/646
f 262/176/220 265/182/217 261/178/219
f 230/181/646 261/178/219 265/182/217
f 255/156/218 264/179/216 263/175/221
f 264/179/216 265/182/217 262/176/220
f 263/175/221 264/179/216 262/176/220
f 255/156/218 228/177/177 231/156/170
f 230/181/646 226/174/647 261/178/219
f 221/172/537 260/161/209 254/155/203
f 212/183/639 221/172/537 254/155/203
f 180/173/106 186/183/111 187/155/113
f 185/153/110 180/173/106 187/155/113
f 238/155/182 186/183/638 180/173/632
f 237/153/180 238/155/182 180/173/632
f 183/151/109 202/176/130 201/178/129
f 185/153/110 183/151/109 201/178/129
f 224/178/162 225/176/163 183/151/109
f 211/153/146 224/178/162 183/151/109
f 248/178/193 249/176/194 235/151/179
f 237/153/180 248/178/193 235/151/179
f 235/151/179 262/176/214 261/178/213
f 253/153/202 235/151/179 261/178/213
f 273/144/237 154/185/225 111/184/223
f 274/146/223 273/144/237 111/184/223
f 274/146/229 269/187/229 273/144/648
f 270/144/234 150/185/224 108/142/63
f 266/188/226 270/186/230 108/142/63
f 271/190/231 266/188/226 108/142/63
f 151/143/235 271/190/231 108/142/63
f 267/192/227 271/190/231 151/143/649
f 109/145/650 267/192/227 151/143/649
f 272/190/232 153/143/236 110/142/61
f 268/188/228 272/190/232 110/142/61
f 272/190/232 267/192/227 109/145/650
f 153/143/651 272/190/232 109/145/650
f 111/184/223 150/185/224 270/144/234
f 274/146/223 111/184/223 270/144/234
f 269/187/229 274/146/229 270/144/652
f 273/144/237 110/142/61 154/185/225
f 273/186/233 268/188/228 110/142/61
f 288/195/249 279/194/242 276/193/239
f 291/196/239 288/195/249 276/193/239
f 291/196/246 284/197/246 288/195/653
f 283/199/10 275/198/238 279/194/242
f 288/195/249 283/199/10 279/194/242
f 280/200/243 275/198/238 283/199/10
f 287/201/94 280/200/243 283/199/10
f 278/203/241 280/200/243 287/201/94
f 292/204/241 278/203/241 287/201/94
f 287/202/248 286/205/247 292/204/654
f 290/201/251 282/200/245 278/203/655
f 292/204/655 290/201/251 278/203/655
f 292/204/654 286/205/247 290/201/656
f 285/199/12 277/198/240 282/200/245
f 290/201/251 285/199/12 282/200/245
f 281/194/244 277/198/240 285/199/12
f 289/195/250 281/194/244 285/199/12
f 276/193/657 281/194/244 289/195/250
f 291/196/657 276/193/657 289/195/250
f 284/197/246 291/196/246 289/195/250
f 294/208/252 295/207/252 293/206/252
f 295/207/253 296/210/253 293/209/253
f 296/210/254 297/211/254 293/209/254
f 297/211/658 294/213/658 293/212/658
f 298/214/255 295/207/255 294/208/255
f 298/215/659 296/210/659 295/207/659
f 298/215/660 297/211/660 296/210/660
f 298/216/661 294/213/661 297/211/661
f 303/218/257 299/218/256 300/217/257
f 304/217/260 303/218/257 300/217/257
f 304/218/258 300/218/662 301/217/258
f 305/217/261 304/218/258 301/217/258
f 301/218/262 302/217/259 306/217/262
f 305/218/663 301/218/262 306/217/262
f 302/218/664 299/217/665 303/217/664
f 306/218/666 302/218/664 303/217/664
f 308/221/263 309/220/263 307/219/263
f 309/220/264 310/222/264 307/219/264
f 310/222/265 311/223/265 307/219/265
f 311/223/667 308/221/667 307/219/667
f 312/224/266 309/220/266 308/221/266
f 312/224/668 310/222/668 309/220/668
f 312/224/669 311/223/669 310/222/669
f 312/224/670 308/221/670 311/223/670
f 314/227/63 315/226/63 313/225/63
f 315/226/63 316/228/63 313/225/63
f 316/228/63 317/229/63 313/225/63
f 317/229/63 314/227/63 313/225/63
f 323/232/61 322/231/61 326/230/61
f 324/233/61 323/232/61 326/230/61
f 325/229/61 324/233/61 326/230/61
f 322/231/61 325/229/61 326/230/61
f 328/208/271 329/207/271 327/206/271
f 329/207/272 330/210/272 327/209/272
f 330/210/273 331/211/273 327/209/273
f 331/211/671 328/213/671 327/212/671
f 332/214/274 329/207/274 328/208/274
f 332/215/672 330/210/672 329/207/672
f 332/215/673 331/211/673 330/210/673
f 332/216/674 328/213/674 331/211/674
f 339/218/281 340/217/282 334/217/276
f 340/217/675 341/217/283 333/217/275
f 349/218/291 350/217/292 344/217/286
f 350/217/676 351/217/293 343/217/285
f 333/218/36 335/218/278 336/217/278
f 333/218/275 336/218/679 337/217/279
f 333/217/277 334/218/276 337/218/280
f 338/217/280 333/217/277 337/218/280
f 335/217/683 333/217/682 338/218/680
f 339/218/281 334/217/276 333/218/277
f 342/218/284 339/218/684 333/218/681
f 341/217/14 342/218/523 333/218/36
f 346/217/288 343/217/677 345/218/288
f 343/218/285 346/218/685 347/217/289
f 343/217/287 344/218/286 347/218/290
f 348/217/290 343/217/287 347/218/290
f 345/217/689 343/217/688 348/218/686
f 349/218/291 344/217/286 343/218/287
f 352/218/294 349/218/294 343/218/687
f 351/217/678 352/218/690 343/218/690
f 318/236/267 319/235/268 315/234/691
f 314/237/691 318/236/267 315/234/691
f 319/235/693 320/239/269 316/238/692
f 315/234/692 319/235/693 316/238/692
f 321/240/270 317/240/695 316/238/694
f 320/239/270 321/240/270 316/238/694
f 318/236/697 314/237/696 317/240/696
f 321/240/697 318/236/697 317/240/696
f 322/242/698 323/241/698 319/235/268
f 318/236/267 322/242/698 319/235/268
f 323/241/699 324/243/699 320/239/269
f 319/235/693 323/241/699 320/239/269
f 324/243/701 325/244/700 321/240/270
f 320/239/270 324/243/701 321/240/270
f 325/244/703 322/242/702 318/236/697
f 321/240/697 325/244/703 318/236/697
f 52/246/40 50/246/38 60/245/42
f 62/245/43 52/246/40 60/245/42
f 62/245/43 60/245/42 51/247/39
f 53/247/41 62/245/43 51/247/39
f 67/249/50 62/248/52 53/247/41
f 66/250/49 52/246/40 62/248/52
f 53/247/41 51/247/39 65/249/48
f 67/249/50 53/247/41 65/249/48
f 65/249/48 51/247/39 60/248/51
f 50/246/38 64/250/47 60/248/51
f 50/246/38 52/246/40 66/250/49
f 64/250/47 50/246/38 66/250/49
f 71/253/56 55/252/615 63/251/44
f 73/254/58 71/253/56 63/251/44
f 67/249/50 71/253/56 73/254/58
f 62/248/52 67/249/50 73/254/58
f 73/254/58 63/251/44 54/255/614
f 70/256/55 73/254/58 54/255/614
f 66/250/320 62/248/52 73/254/58
f 70/256/55 66/250/49 73/254/58
f 69/253/54 49/252/35 55/252/35
f 71/253/54 69/253/54 55/252/35
f 67/249/704 65/249/48 69/253/54
f 71/253/54 67/249/704 69/253/54
f 61/251/16 49/252/612 69/253/705
f 72/254/57 61/251/16 69/253/705
f 65/249/706 60/248/51 72/254/57
f 69/253/705 65/249/706 72/254/57
f 48/255/613 61/251/16 72/254/57
f 68/256/53 48/255/613 72/254/57
f 64/250/47 68/256/53 72/254/57
f 60/248/51 64/250/47 72/254/57
f 70/256/608 54/255/34 48/255/34
f 68/256/608 70/256/608 48/255/34
f 64/250/73 66/250/49 70/256/608
f 68/256/608 64/250/73 70/256/608
g item_damaged
s 1
f 361/259/68 356/258/297 353/257/295
f 358/260/295 361/259/68 353/257/295
f 360/260/66 355/257/66 357/258/298
f 362/259/299 360/260/66 357/258/298
f 358/260/707 353/257/707 355/257/707
f 360/260/707 358/260/707 355/257/707
f 362/259/299 357/258/298 354/261/296
f 359/262/296 362/259/299 354/261/296
f 359/262/445 354/261/445 356/258/297
f 361/259/68 359/262/445 356/258/297
f 366/265/302 364/264/300 368/263/303
f 364/264/708 365/266/301 368/263/663
f 363/268/709 367/267/663 368/263/663
f 365/266/301 363/268/709 368/263/663
f 363/268/710 366/265/302 368/263/303
f 367/267/303 363/268/710 368/263/303
f 365/266/301 371/270/281 369/269/16
f 363/271/709 365/266/301 369/269/16
f 366/265/302 363/271/710 369/269/5
f 372/270/12 366/265/302 369/269/5
f 366/265/302 372/270/12 370/272/304
f 364/264/300 366/265/302 370/272/304
f 365/266/301 364/264/708 370/272/711
f 371/270/281 365/266/301 370/272/711
f 402/275/79 400/274/310 403/273/310
f 406/276/307 402/275/79 403/273/310
f 401/275/280 399/278/309 407/277/309
f 404/276/306 401/275/280 407/277/309
f 399/278/305 402/275/79 406/276/307
f 407/277/305 399/278/305 406/276/307
f 398/274/308 401/275/280 404/276/306
f 405/273/308 398/274/308 404/276/306
f 400/274/712 398/274/712 405/273/712
f 403/273/712 400/274/712 405/273/712
f 380/260/5 382/259/46 385/279/3
f 387/280/5 380/260/5 385/279/3
f 382/259/46 379/262/304 384/281/304
f 385/279/3 382/259/46 384/281/304
f 379/262/711 381/259/1 386/279/281
f 384/281/711 379/262/711 386/279/281
f 381/259/1 378/260/16 383/280/16
f 386/279/281 381/259/1 383/280/16
f 378/260/137 380/260/137 387/280/137
f 383/280/137 378/260/137 387/280/137
f 369/269/16 371/270/281 374/282/1
f 375/283/16 369/269/16 374/282/1
f 372/270/12 369/269/5 373/283/5
f 376/282/46 372/270/12 373/283/5
f 373/283/713 369/269/697 375/283/713
f 370/272/304 372/270/12 376/282/46
f 377/284/304 370/272/304 376/282/46
f 371/270/281 370/272/711 377/284/711
f 374/282/1 371/270/281 377/284/711
f 390/274/66 392/275/307 396/282/79
f 393/283/66 390/274/66 396/282/79
f 392/275/307 389/278/305 397/284/305
f 396/282/79 392/275/307 397/284/305
f 389/278/309 391/275/306 394/282/280
f 397/284/309 389/278/309 394/282/280
f 391/275/306 388/274/295 395/283/295
f 394/282/280 391/275/306 395/283/295
f 388/274/714 390/274/714 393/283/714
f 395/283/714 388/274/714 393/283/714
f 414/281/304 409/286/304 410/285/46
f 415/279/3 414/281/304 410/285/46
f 416/279/281 411/285/1 409/286/711
f 414/281/711 416/279/281 409/286/711
f 413/280/16 408/287/16 411/285/1
f 416/279/281 413/280/16 411/285/1
f 415/279/3 410/285/46 412/287/5
f 417/280/5 415/279/3 412/287/5
f 408/287/137 413/280/137 417/280/137
f 412/287/137 408/287/137 417/280/137
f 422/277/45 424/286/45 426/285/37
f 419/276/16 422/277/45 426/285/37
f 421/276/36 425/285/311 424/286/44
f 422/277/44 421/276/36 424/286/44
f 418/273/3 427/287/3 425/285/311
f 421/276/36 418/273/3 425/285/311
f 419/276/16 426/285/37 423/287/1
f 420/273/1 419/276/16 423/287/1
f 427/287/715 418/273/715 420/273/715
f 423/287/715 427/287/715 420/273/715
f 424/286/44 422/277/44 421/276/36
f 425/285/311 424/286/44 421/276/36
f 26/22/313 24/21/312 32/20/316
f 34/23/317 26/22/313 32/20/316
f 27/24/315 26/22/313 34/23/317
f 35/25/319 27/24/315 34/23/317
f 25/26/314 27/24/315 35/25/319
f 33/27/318 25/26/314 35/25/319
f 24/21/312 25/26/314 33/27/318
f 32/20/316 24/21/312 33/27/318
f 33/289/318 35/29/319 34/288/317
f 32/290/316 33/289/318 34/288/317
f 28/34/257 24/33/320 26/32/321
f 30/35/324 28/34/257 26/32/321
f 30/35/324 26/32/321 27/36/323
f 31/37/326 30/35/324 27/36/323
f 31/37/326 27/36/323 25/38/322
f 29/39/325 31/37/326 25/38/322
f 29/39/325 25/38/322 24/33/320
f 28/34/257 29/39/325 24/33/320
f 30/289/324 31/29/326 29/288/325
f 28/290/257 30/289/324 29/288/325
f 428/42/327 430/41/327 434/40/327
f 432/43/327 428/42/327 434/40/327
f 431/46/328 429/45/328 433/44/328
f 435/47/328 431/46/328 433/44/328
f 429/45/338 436/49/306 438/48/297
f 433/44/338 429/45/338 438/48/297
f 436/49/306 428/42/295 432/43/295
f 438/48/297 436/49/306 432/43/295
f 430/41/66 437/51/299 439/50/79
f 434/40/66 430/41/66 439/50/79
f 437/51/299 431/46/716 435/47/716
f 439/50/79 437/51/299 435/47/716
f 435/47/348 433/44/348 438/48/348
f 432/43/348 435/47/348 438/48/348
f 439/50/348 435/47/348 432/43/348
f 434/40/348 439/50/348 432/43/348
f 440/54/327 446/53/327 450/52/334
f 448/55/334 440/54/327 450/52/334
f 447/58/329 441/57/329 449/56/329
f 451/59/329 447/58/329 449/56/329
f 449/56/717 441/57/717 453/60/338
f 453/61/295 440/63/262 448/62/262
f 450/52/718 446/53/718 455/64/66
f 455/65/337 447/58/719 451/59/719
f 467/68/348 466/67/348 478/66/348
f 469/67/348 468/70/348 478/69/348
f 470/71/348 469/67/348 478/69/348
f 472/67/348 471/73/348 478/72/348
f 473/68/348 472/67/348 478/72/348
f 475/67/348 474/75/348 478/74/348
f 476/68/348 475/67/348 478/74/348
f 466/67/348 477/76/348 478/66/348
f 466/78/349 467/77/349 479/66/349
f 468/80/349 469/67/349 479/79/349
f 469/67/349 470/81/349 479/79/349
f 471/75/349 472/67/349 479/72/349
f 472/67/349 473/68/349 479/72/349
f 474/83/349 475/67/349 479/82/349
f 475/67/349 476/84/349 479/82/349
f 477/81/349 466/78/349 479/66/349
f 478/66/348 480/85/348 467/68/348
f 478/69/348 468/70/348 480/86/348
f 478/69/348 481/87/348 470/71/348
f 478/72/348 471/73/348 481/88/348
f 478/72/348 482/89/348 473/68/348
f 478/74/348 474/75/348 482/90/348
f 478/74/348 483/91/348 476/68/348
f 478/66/348 477/76/348 483/92/348
f 479/79/349 480/86/349 468/80/349
f 479/66/349 467/77/349 480/93/349
f 479/72/349 481/88/349 471/75/349
f 479/79/349 470/81/349 481/87/349
f 479/82/349 482/94/349 474/83/349
f 479/72/349 473/68/349 482/89/349
f 479/66/349 483/95/349 477/81/349
f 479/82/349 476/84/349 483/91/349
f 444/246/332 442/246/330 452/245/335
f 454/245/336 444/246/332 452/245/335
f 454/245/336 452/245/335 443/247/331
f 445/247/333 454/245/336 443/247/331
f 459/249/341 454/248/343 445/247/333
f 458/250/286 444/246/332 454/248/343
f 445/247/333 443/247/331 457/249/340
f 459/249/720 445/247/333 457/249/340
f 457/249/721 443/247/331 452/248/342
f 442/246/722 456/250/339 452/248/342
f 442/246/330 444/246/332 458/250/723
f 456/250/724 442/246/330 458/250/723
f 463/253/347 447/252/719 455/251/337
f 465/254/17 463/253/347 455/251/337
f 459/249/341 463/253/347 465/254/17
f 454/248/343 459/249/341 465/254/17
f 455/251/337 446/255/718 462/256/346
f 465/254/17 455/251/337 462/256/346
f 458/250/286 454/248/343 465/254/17
f 462/256/346 458/250/286 465/254/17
f 461/253/345 441/252/329 447/252/329
f 463/253/345 461/253/345 447/252/329
f 459/249/720 457/249/340 461/253/345
f 463/253/345 459/249/720 461/253/345
f 453/251/295 441/252/717 461/253/725
f 464/254/4 453/251/295 461/253/725
f 457/249/721 452/248/342 464/254/4
f 461/253/725 457/249/721 464/254/4
f 460/256/344 440/255/262 453/251/295
f 464/254/4 460/256/344 453/251/295
f 456/250/339 460/256/344 464/254/4
f 452/248/342 456/250/339 464/254/4
f 462/256/726 446/255/327 440/255/327
f 460/256/726 462/256/726 440/255/327
f 456/250/724 458/250/723 462/256/726
f 460/256/726 456/250/724 462/256/726
g item_bladens
s 1
f 9/3/8 7/2/6 11/1/9
f 7/2/601 8/4/7 11/1/600
f 6/6/602 10/5/600 11/1/600
f 8/4/7 6/6/602 11/1/600
f 6/6/603 9/3/8 11/1/9
f 10/5/9 6/6/603 11/1/9
f 8/4/7 14/8/13 12/7/10
f 15/8/14 9/3/8 12/7/12
f 9/3/8 15/8/14 13/10/11
f 7/2/6 9/3/8 13/10/11
f 8/4/7 7/2/601 13/10/605
f 14/8/13 8/4/7 13/10/605
f 12/7/10 14/8/13 18/11/13
f 484/12/1 12/7/10 18/11/13
f 15/8/14 12/7/12 485/12/3
f 19/11/14 15/8/14 485/12/3
f 485/12/606 12/7/604 484/12/73
f 13/10/11 15/8/14 19/11/14
f 17/13/15 13/10/11 19/11/14
f 14/8/13 13/10/605 17/13/122
f 18/11/13 14/8/13 17/13/122
f 22/16/16 4/15/4 1/14/1
f 486/17/1 22/16/16 1/14/1
f 484/12/1 18/11/13 22/16/16
f 486/17/1 484/12/1 22/16/16
f 487/17/3 3/14/3 5/15/5
f 23/16/17 487/17/3 5/15/5
f 19/11/14 485/12/3 487/17/3
f 23/16/17 19/11/14 487/17/3
f 486/17/608 1/14/607 3/14/607
f 487/17/608 486/17/608 3/14/607
f 485/12/606 484/12/73 486/17/608
f 487/17/608 485/12/606 486/17/608
f 23/16/17 5/15/5 2/18/2
f 21/19/2 23/16/17 2/18/2
f 17/13/15 19/11/14 23/16/17
f 21/19/2 17/13/15 23/16/17
f 21/19/609 2/18/609 4/15/4
f 22/16/16 21/19/609 4/15/4
f 18/11/13 17/13/122 21/19/609
f 22/16/16 18/11/13 21/19/609
f 25/22/19 24/21/18 28/20/22
f 29/23/23 25/22/19 28/20/22
f 27/24/21 25/22/19 29/23/23
f 31/25/25 27/24/21 29/23/23
f 26/26/20 27/24/21 31/25/25
f 30/27/24 26/26/20 31/25/25
f 24/21/18 26/26/20 30/27/24
f 28/20/22 24/21/18 30/27/24
f 30/289/24 31/29/25 29/288/23
f 28/290/22 30/289/24 29/288/23
f 32/34/30 24/33/26 25/32/27
f 33/35/31 32/34/30 25/32/27
f 33/35/31 25/32/27 27/36/29
f 35/37/33 33/35/31 27/36/29
f 35/37/33 27/36/29 26/38/28
f 34/39/32 35/37/33 26/38/28
f 34/39/32 26/38/28 24/33/26
f 32/34/30 34/39/32 24/33/26
f 33/289/31 35/29/33 34/288/32
f 32/290/30 33/289/31 34/288/32
f 36/42/34 38/41/34 42/40/34
f 40/43/34 36/42/34 42/40/34
f 39/46/35 37/45/35 41/44/35
f 43/47/35 39/46/35 41/44/35
f 37/45/610 44/49/16 46/48/37
f 41/44/610 37/45/610 46/48/37
f 44/49/16 36/42/281 40/43/281
f 46/48/37 44/49/16 40/43/281
f 38/41/46 45/51/36 47/50/5
f 42/40/46 38/41/46 47/50/5
f 45/51/36 39/46/611 43/47/611
f 47/50/5 45/51/36 43/47/611
f 43/47/59 41/44/59 46/48/59
f 40/43/59 43/47/59 46/48/59
f 47/50/59 43/47/59 40/43/59
f 42/40/59 47/50/59 40/43/59
f 48/54/34 54/53/34 58/52/34
f 56/55/34 48/54/34 58/52/34
f 55/58/35 49/57/35 57/56/35
f 59/59/35 55/58/35 57/56/35
f 49/57/612 489/61/16 492/60/45
f 57/56/612 49/57/612 492/60/45
f 489/61/16 48/63/613 56/62/613
f 492/60/45 489/61/16 56/62/613
f 54/53/614 491/65/44 493/64/46
f 58/52/614 54/53/614 493/64/46
f 491/65/44 55/58/615 59/59/615
f 493/64/46 491/65/44 59/59/615
f 75/68/59 74/67/59 86/66/59
f 77/67/59 76/70/59 86/69/59
f 78/71/59 77/67/59 86/69/59
f 80/67/59 79/73/59 86/72/59
f 81/68/59 80/67/59 86/72/59
f 83/67/59 82/75/59 86/74/59
f 84/68/59 83/67/59 86/74/59
f 74/67/59 85/76/59 86/66/59
f 74/78/60 75/77/60 87/66/60
f 76/80/60 77/67/60 87/79/60
f 77/67/60 78/81/60 87/79/60
f 79/75/60 80/67/60 87/72/60
f 80/67/60 81/68/60 87/72/60
f 82/83/60 83/67/60 87/82/60
f 83/67/60 84/84/60 87/82/60
f 85/81/60 74/78/60 87/66/60
f 86/66/59 88/85/59 75/68/59
f 86/69/59 76/70/59 88/86/59
f 86/69/59 89/87/59 78/71/59
f 86/72/59 79/73/59 89/88/59
f 86/72/59 90/89/59 81/68/59
f 86/74/59 82/75/59 90/90/59
f 86/74/59 91/91/59 84/68/59
f 86/66/59 85/76/59 91/92/59
f 87/79/60 88/86/60 76/80/60
f 87/66/60 75/77/60 88/93/60
f 87/72/60 89/88/60 79/75/60
f 87/79/60 78/81/60 89/87/60
f 87/82/60 90/94/60 82/83/60
f 87/72/60 81/68/60 90/89/60
f 87/66/60 91/95/60 85/81/60
f 87/82/60 84/84/60 91/91/60
f 12/7/12 9/3/8 6/9/603
f 12/7/10 6/9/602 8/4/7
f 52/246/40 50/246/38 488/245/42
f 490/245/43 52/246/40 488/245/42
f 490/245/43 488/245/42 51/247/39
f 53/247/41 490/245/43 51/247/39
f 495/248/52 490/245/43 53/247/41
f 67/249/50 495/248/52 53/247/41
f 52/246/40 490/245/43 495/248/52
f 66/250/49 52/246/40 495/248/52
f 53/247/41 51/247/39 65/249/48
f 67/249/50 53/247/41 65/249/48
f 51/247/39 488/245/42 494/248/51
f 65/249/48 51/247/39 494/248/51
f 50/246/38 64/250/47 494/248/51
f 488/245/42 50/246/38 494/248/51
f 50/246/38 52/246/40 66/250/49
f 64/250/47 50/246/38 66/250/49
f 71/253/56 55/252/615 491/251/44
f 73/254/58 71/253/56 491/251/44
f 67/249/50 71/253/56 73/254/58
f 495/248/52 67/249/50 73/254/58
f 73/254/58 491/251/44 54/255/614
f 70/256/55 73/254/58 54/255/614
f 66/250/320 495/248/52 73/254/58
f 70/256/55 66/250/49 73/254/58
f 69/253/54 49/252/35 55/252/35
f 71/253/54 69/253/54 55/252/35
f 67/249/704 65/249/48 69/253/54
f 71/253/54 67/249/704 69/253/54
f 489/251/16 49/252/612 69/253/705
f 72/254/57 489/251/16 69/253/705
f 65/249/706 494/248/51 72/254/57
f 69/253/705 65/249/706 72/254/57
f 48/255/613 489/251/16 72/254/57
f 68/256/53 48/255/613 72/254/57
f 64/250/47 68/256/53 72/254/57
f 494/248/51 64/250/47 72/254/57
f 70/256/608 54/255/34 48/255/34
f 68/256/608 70/256/608 48/255/34
f 64/250/73 66/250/49 70/256/608
f 68/256/608 64/250/73 70/256/608
g sheath
s 1
f 499/98/361 496/97/63 517/96/63
f 524/99/361 499/98/361 517/96/63
f 517/96/63 496/97/63 497/100/360
f 519/101/360 517/96/63 497/100/360
f 497/100/360 496/97/63 518/102/63
f 521/103/360 497/100/360 518/102/63
f 518/102/63 496/97/63 499/98/361
f 525/104/361 518/102/63 499/98/361
f 520/100/362 498/97/61 512/96/61
f 545/101/362 520/100/362 512/96/61
f 512/96/61 498/97/61 522/98/363
f 544/99/363 512/96/61 522/98/363
f 522/98/363 498/97/61 523/102/364
f 552/104/363 522/98/363 523/102/364
f 523/102/364 498/97/61 520/100/362
f 550/103/376 523/102/364 520/100/362
f 501/113/366 500/112/63 526/111/63
f 527/114/366 501/113/366 526/111/63
f 526/111/63 500/112/63 503/115/365
f 531/116/365 526/111/63 503/115/365
f 503/115/365 500/112/63 518/102/63
f 525/104/361 503/115/365 518/102/63
f 518/102/63 500/112/63 501/113/366
f 521/103/360 518/102/63 501/113/366
f 530/115/47 502/112/353 529/111/61
f 554/116/47 530/115/47 529/111/61
f 529/111/61 502/112/353 528/113/367
f 553/114/377 529/111/61 528/113/367
f 502/112/353 523/102/364 550/103/376
f 528/113/367 502/112/353 550/103/376
f 523/102/364 502/112/353 530/115/47
f 552/104/363 523/102/364 530/115/47
f 536/123/63 504/122/63 510/121/370
f 543/124/370 536/123/63 510/121/370
f 510/121/370 504/122/63 526/111/63
f 531/116/365 510/121/370 526/111/63
f 526/111/63 504/122/63 506/125/371
f 527/114/366 526/111/63 506/125/371
f 506/125/371 504/122/63 536/123/63
f 538/126/371 506/125/371 536/123/63
f 511/128/372 505/127/355 536/123/63
f 543/124/370 511/128/372 536/123/63
f 536/123/63 505/127/355 507/129/371
f 538/126/371 536/123/63 507/129/371
f 507/129/371 505/127/355 532/130/368
f 556/131/371 507/129/371 532/130/368
f 505/127/355 511/128/372 555/132/378
f 532/130/368 505/127/355 555/132/378
f 557/131/373 539/129/373 533/136/357
f 556/131/371 533/136/357 507/129/371
f 541/123/61 508/122/61 537/125/373
f 559/126/373 541/123/61 537/125/373
f 537/125/373 508/122/61 529/111/61
f 553/114/377 537/125/373 529/111/61
f 529/111/61 508/122/61 540/121/374
f 554/116/47 529/111/61 540/121/374
f 540/121/374 508/122/61 541/123/61
f 560/124/374 540/121/374 541/123/61
f 539/129/373 509/127/308 541/123/61
f 559/126/373 539/129/373 541/123/61
f 541/123/61 509/127/308 542/128/375
f 560/124/374 541/123/61 542/128/375
f 542/128/375 509/127/308 534/130/308
f 558/132/379 542/128/375 534/130/308
f 534/130/308 509/127/308 539/129/373
f 557/131/373 534/130/308 539/129/373
f 555/132/378 511/128/372 535/140/369
f 558/132/379 535/140/369 542/128/375
f 512/142/359 516/142/359 545/141/359
f 512/142/359 544/144/359 563/142/359
f 547/143/359 513/145/359 562/143/359
f 549/105/350 513/145/350 547/143/360
f 548/144/359 517/142/359 561/142/359
f 517/142/359 547/143/359 546/141/359
f 519/101/360 547/143/360 517/96/63
f 524/99/361 517/96/63 548/144/361
f 563/142/359 544/144/359 515/144/359
f 561/142/359 515/144/359 548/144/359
f 548/144/361 696/146/351 551/108/351
f 563/148/359 514/148/359 546/150/359
f 563/148/359 515/149/359 561/147/359
f 514/148/359 563/148/359 561/147/359
f 568/154/63 564/152/310 569/153/381
f 571/155/384 568/154/63 569/153/381
f 598/160/391 568/154/63 578/159/389
f 578/159/389 568/154/63 571/155/384
f 579/161/390 578/159/389 571/155/384
f 574/165/385 575/164/386 573/162/296
f 574/165/385 573/162/296 578/166/393
f 573/162/296 598/160/391 578/166/727
f 576/169/387 577/168/388 579/167/394
f 578/166/393 579/167/394 577/168/388
f 574/165/385 578/166/393 577/168/388
f 576/169/387 579/167/394 582/170/396
f 579/167/394 581/171/395 582/170/396
f 581/171/395 579/167/394 571/172/392
f 572/156/181 589/175/399 566/158/380
f 564/151/278 566/158/380 589/175/399
f 567/177/133 572/156/181 566/157/383
f 584/176/406 588/182/403 583/178/405
f 572/156/404 586/177/108 589/156/402
f 589/181/401 585/174/407 583/178/405
f 564/152/310 568/154/63 591/153/409
f 568/154/63 593/155/411 591/153/409
f 590/173/408 591/153/409 592/183/410
f 591/153/409 593/155/411 592/183/410
f 568/154/63 598/159/416 593/155/411
f 598/159/416 599/161/417 593/155/411
f 597/168/415 596/169/414 599/167/420
f 599/167/420 580/166/419 597/168/415
f 580/166/419 595/165/413 597/168/415
f 599/167/420 596/169/414 601/170/422
f 600/171/421 599/167/420 601/170/422
f 599/167/420 600/171/421 593/172/418
f 594/156/412 567/177/425 566/157/383
f 607/180/426 632/179/428 608/181/427
f 608/182/187 603/176/432 602/178/431
f 632/179/428 594/156/430 605/175/434
f 608/182/187 632/179/428 603/176/432
f 632/179/428 605/175/434 603/176/432
f 606/177/435 594/156/430 609/156/429
f 604/174/433 608/181/427 602/178/431
f 610/152/308 612/154/61 565/153/376
f 612/154/61 570/155/163 565/153/376
f 612/154/61 628/160/444 618/159/442
f 612/154/61 618/159/442 570/155/163
f 618/159/442 619/161/443 570/155/163
f 616/164/440 615/165/439 614/162/445
f 614/162/445 615/165/439 618/166/446
f 628/160/444 614/162/445 618/166/729
f 617/168/441 576/169/387 619/167/447
f 619/167/447 618/166/446 617/168/441
f 618/166/446 615/165/439 617/168/441
f 619/167/447 576/169/387 582/170/730
f 581/171/731 619/167/447 582/170/730
f 619/167/447 581/171/731 571/172/732
f 623/175/449 624/156/112 611/158/436
f 611/158/436 610/151/437 623/175/449
f 624/156/112 567/177/133 611/157/438
f 565/153/376 569/174/398 621/178/448
f 587/180/400 589/156/402 588/179/450
f 624/182/451 622/176/453 621/178/452
f 588/179/450 623/175/454 622/176/453
f 586/177/108 613/156/335 589/156/402
f 585/174/734 589/181/733 621/178/452
f 619/161/735 571/172/728 570/155/163
f 612/154/61 610/152/308 590/153/455
f 592/155/456 612/154/61 590/153/455
f 628/159/460 612/154/61 592/155/456
f 629/161/461 628/159/460 592/155/456
f 596/169/414 627/168/459 629/167/463
f 620/166/462 629/167/463 627/168/459
f 626/165/458 620/166/462 627/168/459
f 596/169/414 629/167/463 601/170/736
f 629/167/463 600/171/737 601/170/736
f 600/171/737 629/167/463 593/172/738
f 567/177/425 625/156/457 611/157/438
f 591/174/424 590/153/455 608/178/464
f 632/179/465 607/180/739 608/181/118
f 631/176/468 632/182/119 630/178/467
f 625/156/466 606/177/435 609/156/429
f 593/172/351 629/161/740 592/155/456
f 565/173/352 570/183/382 571/155/384
f 569/153/381 565/173/352 571/155/384
f 634/208/469 635/207/469 633/206/469
f 635/207/470 636/210/470 633/209/470
f 636/210/471 637/211/471 633/209/471
f 637/211/668 634/213/668 633/212/668
f 638/214/472 635/207/472 634/208/472
f 638/215/667 636/210/667 635/207/667
f 638/215/741 637/211/741 636/210/741
f 638/216/742 634/213/742 637/211/742
f 641/218/743 639/217/744 640/217/743
f 642/218/745 641/218/743 640/217/743
f 644/221/473 645/220/473 643/219/473
f 645/220/474 646/222/474 643/219/474
f 646/222/475 647/223/475 643/219/475
f 647/223/746 644/221/746 643/219/746
f 648/224/476 645/220/476 644/221/476
f 648/224/747 646/222/747 645/220/747
f 648/224/748 647/223/748 646/222/748
f 648/224/749 644/221/749 647/223/749
f 650/292/61 651/291/61 649/225/61
f 651/291/61 652/293/61 649/225/61
f 652/293/61 653/294/61 649/225/61
f 653/294/61 650/292/61 649/225/61
f 659/296/63 658/295/63 662/230/63
f 660/297/63 659/296/63 662/230/63
f 661/298/63 660/297/63 662/230/63
f 658/295/63 661/298/63 662/230/63
f 664/208/480 665/207/480 663/206/480
f 665/207/481 666/210/481 663/209/481
f 666/210/482 667/211/482 663/209/482
f 667/211/750 664/213/750 663/212/750
f 668/214/483 665/207/483 664/208/483
f 668/215/751 666/210/751 665/207/751
f 668/215/752 667/211/752 666/210/752
f 668/216/753 664/213/753 667/211/753
f 675/218/46 676/217/79 670/217/46
f 676/217/754 677/217/488 669/217/485
f 685/218/496 686/217/497 680/217/491
f 686/217/756 687/217/498 679/217/490
f 669/218/484 671/218/37 672/217/37
f 669/218/485 672/218/759 673/217/487
f 669/217/486 670/218/46 673/218/486
f 674/217/486 669/217/486 673/218/486
f 671/217/763 669/217/762 674/218/760
f 675/218/46 670/217/46 669/218/486
f 678/218/489 675/218/764 669/218/761
f 677/217/755 678/218/597 669/218/484
f 682/217/493 679/217/757 681/218/493
f 679/218/490 682/218/765 683/217/494
f 679/217/492 680/218/491 683/218/495
f 684/217/495 679/217/492 683/218/495
f 681/217/769 679/217/768 684/218/766
f 685/218/496 680/217/491 679/218/492
f 688/218/499 685/218/499 679/218/767
f 687/217/758 688/218/770 679/218/770
f 569/153/381 564/151/278 583/178/397
f 591/153/409 602/178/423 564/151/278
f 565/153/376 621/178/448 610/151/437
f 590/153/455 610/151/437 608/178/464
f 654/299/477 655/288/478 651/291/771
f 650/292/771 654/299/477 651/291/771
f 655/288/772 656/300/275 652/293/574
f 651/291/574 655/288/772 652/293/574
f 657/298/479 653/294/774 652/293/773
f 656/300/479 657/298/479 652/293/773
f 654/299/777 650/292/776 653/294/775
f 657/298/777 654/299/777 653/294/775
f 658/295/778 659/296/778 655/288/478
f 654/299/477 658/295/778 655/288/478
f 659/296/573 660/297/573 656/300/275
f 655/288/772 659/296/573 656/300/275
f 660/297/780 661/298/779 657/298/479
f 656/300/479 660/297/780 657/298/479
f 661/298/782 658/295/781 654/299/777
f 657/298/777 661/298/782 654/299/777
f 695/144/507 548/185/502 696/184/488
f 692/144/504 544/185/500 689/142/61
f 690/145/503 693/143/505 513/191/345
f 694/143/506 547/189/501 691/142/63
f 513/191/345 547/189/501 694/143/506
f 690/145/503 513/191/345 694/143/506
f 696/184/488 544/185/500 692/144/504
f 695/144/507 691/142/63 548/185/502
f 710/195/519 701/194/511 698/193/508
f 713/196/350 710/195/519 698/193/508
f 713/196/350 706/197/515 710/195/519
f 705/199/517 697/198/292 701/194/511
f 710/195/519 705/199/517 701/194/511
f 702/200/512 697/198/292 705/199/517
f 709/201/520 702/200/512 705/199/517
f 700/203/510 702/200/512 709/201/520
f 712/201/522 704/200/514 700/203/510
f 714/204/783 712/201/522 700/203/510
f 714/204/518 708/205/516 712/201/522
f 707/199/276 699/198/509 704/200/514
f 712/201/522 707/199/276 704/200/514
f 703/194/513 699/198/509 707/199/276
f 711/195/521 703/194/513 707/199/276
f 698/193/508 703/194/513 711/195/521
f 713/196/350 698/193/508 711/195/521
f 706/197/515 713/196/350 711/195/521
g effect
s 1
f 748/303/532 715/302/523 745/301/517
f 797/304/555 748/303/532 745/301/517
f 745/301/517 715/302/523 746/305/531
f 799/306/371 745/301/517 746/305/531
f 715/302/523 747/308/355 800/307/557
f 746/305/531 715/302/523 800/307/557
f 747/308/355 715/302/523 748/303/532
f 798/309/556 747/308/355 748/303/532
f 746/305/531 716/311/350 749/310/229
f 799/306/371 746/305/531 749/310/229
f 749/310/229 716/311/350 750/305/367
f 801/306/373 749/310/229 750/305/367
f 750/305/367 716/311/350 751/312/350
f 802/307/558 750/305/367 751/312/350
f 751/312/350 716/311/350 746/305/531
f 800/307/557 751/312/350 746/305/531
f 750/305/367 717/302/353 752/301/276
f 801/306/373 750/305/367 752/301/276
f 752/301/276 717/302/353 753/303/533
f 803/304/559 752/301/276 753/303/533
f 753/303/533 717/302/353 754/308/282
f 804/309/560 753/303/533 754/308/282
f 717/302/353 750/305/367 802/307/558
f 754/308/282 717/302/353 802/307/558
f 753/303/533 718/314/351 755/313/534
f 803/304/559 753/303/533 755/313/534
f 755/313/534 718/314/351 748/303/532
f 797/304/555 755/313/534 748/303/532
f 718/314/351 756/315/222 798/309/556
f 748/303/532 718/314/351 798/309/556
f 718/314/351 753/303/533 804/309/560
f 756/315/222 718/314/351 804/309/560
f 759/318/366 719/317/63 757/316/63
f 806/319/366 759/318/366 757/316/63
f 757/316/63 719/317/63 758/320/365
f 805/321/365 757/316/63 758/320/365
f 758/320/365 719/317/63 747/308/355
f 798/309/556 758/320/365 747/308/355
f 747/308/355 719/317/63 759/318/366
f 800/307/557 747/308/355 759/318/366
f 761/318/377 720/323/352 760/322/229
f 807/319/377 761/318/377 760/322/229
f 760/322/229 720/323/352 759/318/366
f 806/319/366 760/322/229 759/318/366
f 759/318/366 720/323/352 751/312/350
f 800/307/557 759/318/366 751/312/350
f 751/312/350 720/323/352 761/318/377
f 802/307/558 751/312/350 761/318/377
f 763/320/47 721/317/61 762/316/61
f 808/321/374 763/320/47 762/316/61
f 762/316/61 721/317/61 761/318/377
f 807/319/377 762/316/61 761/318/377
f 761/318/377 721/317/61 754/308/282
f 802/307/558 761/318/377 754/308/282
f 754/308/282 721/317/61 763/320/47
f 804/309/560 754/308/282 763/320/47
f 758/320/365 722/325/354 764/324/354
f 805/321/365 758/320/365 764/324/354
f 764/324/354 722/325/354 763/320/47
f 808/321/374 764/324/354 763/320/47
f 763/320/47 722/325/354 756/315/222
f 804/309/560 763/320/47 756/315/222
f 756/315/222 722/325/354 758/320/365
f 798/309/556 756/315/222 758/320/365
f 765/331/536 723/328/310 766/332/63
f 809/333/561 765/331/536 766/332/63
f 766/332/63 723/328/310 767/329/537
f 810/334/548 766/332/63 767/329/537
f 770/329/156 724/336/357 768/335/350
f 768/335/350 724/336/357 767/329/537
f 767/329/537 724/336/357 769/337/357
f 810/334/548 767/329/537 769/337/357
f 769/337/357 724/336/357 770/329/156
f 811/334/549 769/337/357 770/329/156
f 770/329/156 725/328/308 771/332/61
f 811/334/549 770/329/156 771/332/61
f 771/332/61 725/328/308 772/331/539
f 812/333/375 771/332/61 772/331/539
f 765/331/536 726/339/246 773/338/540
f 773/338/540 726/339/246 772/331/539
f 772/331/539 726/339/246 774/340/529
f 812/333/375 772/331/539 774/340/529
f 774/340/529 726/339/246 765/331/536
f 809/333/561 774/340/529 765/331/536
f 775/345/542 815/343/524 723/327/535
f 765/330/562 775/345/542 723/327/535
f 723/327/535 815/343/524 813/344/543
f 728/347/525 777/346/54 778/341/568
f 777/346/54 728/347/525 776/341/567
f 728/347/525 768/335/350 767/326/563
f 768/335/350 728/347/525 770/326/564
f 814/344/544 816/343/526 725/327/538
f 725/327/538 816/343/526 779/345/546
f 772/330/565 725/327/538 779/345/546
f 730/349/527 780/348/547 815/342/566
f 775/345/542 730/349/527 815/342/566
f 730/349/527 779/345/546 816/342/569
f 780/348/547 730/349/527 816/342/569
f 730/349/527 773/338/540 772/330/565
f 779/345/546 730/349/527 772/330/565
f 730/349/527 775/345/542 765/330/562
f 773/338/540 730/349/527 765/330/562
f 780/348/547 731/350/528 815/342/566
f 731/350/528 777/346/54 776/341/567
f 727/342/541 731/350/528 776/341/567
f 731/350/528 729/342/545 778/341/568
f 777/346/54 731/350/528 778/341/568
f 731/350/528 780/348/547 816/342/569
f 783/353/523 732/352/63 781/351/370
f 817/354/570 783/353/523 781/351/370
f 781/351/370 732/352/63 757/316/63
f 805/321/365 781/351/370 757/316/63
f 757/316/63 732/352/63 782/355/371
f 806/319/366 757/316/63 782/355/371
f 782/355/371 732/352/63 783/353/523
f 818/356/371 782/355/371 783/353/523
f 733/357/355 783/353/523 817/354/570
f 785/358/520 733/357/355 817/354/570
f 783/353/523 733/357/355 784/359/548
f 818/356/371 783/353/523 784/359/548
f 784/359/548 733/357/355 766/332/63
f 810/334/548 784/359/548 766/332/63
f 766/332/63 733/357/355 785/358/520
f 809/333/561 766/332/63 785/358/520
f 787/361/356 734/360/356 782/355/371
f 818/356/371 787/361/356 782/355/371
f 782/355/371 734/360/356 760/322/229
f 806/319/366 782/355/371 760/322/229
f 760/322/229 734/360/356 786/355/373
f 807/319/377 760/322/229 786/355/373
f 786/355/373 734/360/356 787/361/356
f 819/356/373 786/355/373 787/361/356
f 784/359/548 735/362/357 787/361/356
f 818/356/371 784/359/548 787/361/356
f 787/361/356 735/362/357 788/359/549
f 819/356/373 787/361/356 788/359/549
f 788/359/549 735/362/357 769/337/357
f 811/334/549 788/359/549 769/337/357
f 769/337/357 735/362/357 784/359/548
f 810/334/548 769/337/357 784/359/548
f 790/353/353 736/352/61 786/355/373
f 819/356/373 790/353/353 786/355/373
f 786/355/373 736/352/61 762/316/61
f 807/319/377 786/355/373 762/316/61
f 762/316/61 736/352/61 789/351/374
f 808/321/374 762/316/61 789/351/374
f 789/351/374 736/352/61 790/353/353
f 820/354/571 789/351/374 790/353/353
f 788/359/549 737/357/282 790/353/353
f 819/356/373 788/359/549 790/353/353
f 737/357/282 791/358/550 820/354/571
f 790/353/353 737/357/282 820/354/571
f 791/358/550 737/357/282 771/332/61
f 812/333/375 791/358/550 771/332/61
f 771/332/61 737/357/282 788/359/549
f 811/334/549 771/332/61 788/359/549
f 792/364/358 738/363/358 789/351/374
f 820/354/571 792/364/358 789/351/374
f 789/351/374 738/363/358 764/324/354
f 808/321/374 789/351/374 764/324/354
f 764/324/354 738/363/358 781/351/370
f 805/321/365 764/324/354 781/351/370
f 781/351/370 738/363/358 792/364/358
f 817/354/570 781/351/370 792/364/358
f 791/358/550 739/365/529 792/364/358
f 820/354/571 791/358/550 792/364/358
f 792/364/358 739/365/529 785/358/520
f 817/354/570 792/364/358 785/358/520
f 785/358/520 739/365/529 774/340/529
f 809/333/561 785/358/520 774/340/529
f 774/340/529 739/365/529 791/358/550
f 812/333/375 774/340/529 791/358/550
f 740/368/530 797/371/552 744/370/575
f 797/371/784 740/368/157 752/301/276
f 803/304/559 797/371/784 752/301/276
f 752/301/276 740/368/157 795/369/163
f 801/306/373 752/301/276 795/369/163
f 795/369/163 741/372/357 749/310/229
f 801/306/373 795/369/163 749/310/229
f 749/310/229 741/372/357 795/369/384
f 799/306/371 749/310/229 795/369/384
f 795/369/384 821/368/210 745/301/517
f 799/306/371 795/369/384 745/301/517
f 745/301/517 821/368/210 797/371/785
f 797/371/785 743/374/786 755/313/534
f 755/313/534 743/374/786 797/371/784
f 803/304/559 755/313/534 797/371/784
f 740/367/551 744/367/261 794/366/574
f 744/367/261 742/367/553 796/366/573
f 744/367/261 793/373/554 821/370/572
g handle
s 1
f 822/42/576 824/41/576 828/40/576
f 826/43/576 822/42/576 828/40/576
f 825/46/351 823/45/351 827/44/351
f 829/47/351 825/46/351 827/44/351
f 823/45/124 830/49/61 832/48/282
f 827/44/124 823/45/124 832/48/282
f 830/49/61 822/42/68 826/43/68
f 832/48/282 830/49/61 826/43/68
f 824/41/298 831/51/302 833/50/63
f 828/40/298 824/41/298 833/50/63
f 831/51/302 825/46/190 829/47/190
f 833/50/63 831/51/302 829/47/190
f 829/47/596 827/44/596 832/48/596
f 826/43/596 829/47/596 832/48/596
f 833/50/596 829/47/596 826/43/596
f 828/40/596 833/50/596 826/43/596
f 834/54/576 838/53/576 842/52/576
f 840/55/576 834/54/576 842/52/576
f 839/58/577 835/57/577 841/56/577
f 843/59/577 839/58/577 841/56/577
f 841/56/787 835/57/787 845/60/585
f 845/61/364 834/63/788 840/62/788
f 842/52/789 838/53/789 847/64/523
f 847/65/584 839/58/790 843/59/790
f 859/68/596 858/67/596 870/66/596
f 861/67/596 860/70/596 870/69/596
f 862/71/596 861/67/596 870/69/596
f 864/67/596 863/73/596 870/72/596
f 865/68/596 864/67/596 870/72/596
f 867/67/596 866/75/596 870/74/596
f 868/68/596 867/67/596 870/74/596
f 858/67/596 869/76/596 870/66/596
f 858/78/359 859/77/359 871/66/359
f 860/80/359 861/67/359 871/79/359
f 861/67/359 862/81/359 871/79/359
f 863/75/359 864/67/359 871/72/359
f 864/67/359 865/68/359 871/72/359
f 866/83/359 867/67/359 871/82/359
f 867/67/359 868/84/359 871/82/359
f 869/81/359 858/78/359 871/66/359
f 870/66/596 872/85/596 859/68/596
f 870/69/596 860/70/596 872/86/596
f 870/69/596 873/87/596 862/71/596
f 870/72/596 863/73/596 873/88/596
f 870/72/596 874/89/596 865/68/596
f 870/74/596 866/75/596 874/90/596
f 870/74/596 875/91/596 868/68/596
f 870/66/596 869/76/596 875/92/596
f 871/79/359 872/86/359 860/80/359
f 871/66/359 859/77/359 872/93/359
f 871/72/359 873/88/359 863/75/359
f 871/79/359 862/81/359 873/87/359
f 871/82/359 874/94/359 866/83/359
f 871/72/359 865/68/359 874/89/359
f 871/66/359 875/95/359 869/81/359
f 871/82/359 868/84/359 875/91/359
f 846/245/583 836/246/580 844/245/582
f 846/245/583 844/245/582 837/247/579
f 851/249/589 846/248/591 837/247/581
f 850/250/588 836/246/580 846/248/591
f 851/249/791 837/247/581 849/249/587
f 849/249/792 837/247/579 844/248/590
f 836/246/793 848/250/586 844/248/590
f 848/250/794 836/246/578 850/250/515
f 855/253/595 839/252/790 847/251/584
f 857/254/307 855/253/595 847/251/584
f 851/249/589 855/253/595 857/254/307
f 846/248/591 851/249/589 857/254/307
f 857/254/307 847/251/584 838/255/789
f 854/256/594 857/254/307 838/255/789
f 850/250/588 846/248/591 857/254/307
f 854/256/594 850/250/588 857/254/307
f 853/253/593 835/252/577 839/252/577
f 855/253/593 853/253/593 839/252/577
f 851/249/791 849/249/587 853/253/593
f 855/253/593 851/249/791 853/253/593
f 845/251/364 835/252/787 853/253/795
f 856/254/280 845/251/364 853/253/795
f 849/249/792 844/248/590 856/254/280
f 853/253/795 849/249/792 856/254/280
f 834/255/788 845/251/364 856/254/280
f 852/256/592 834/255/788 856/254/280
f 848/250/586 852/256/592 856/254/280
f 844/248/590 848/250/586 856/254/280
f 854/256/229 838/255/576 834/255/576
f 852/256/229 854/256/229 834/255/576
f 848/250/794 850/250/515 854/256/229
f 852/256/229 848/250/794 854/256/229
g blade
s 1
f 887/377/598 885/376/58 889/375/599
f 885/376/57 886/378/597 889/375/796
f 884/380/755 888/379/797 889/375/796
f 886/378/597 884/380/755 889/375/796
f 884/380/798 887/377/598 889/375/599
f 888/379/799 884/380/798 889/375/599
f 886/378/597 892/382/282 890/381/68
f 884/383/755 886/378/597 890/381/68
f 887/377/598 884/383/798 890/381/298
f 893/382/355 887/377/598 890/381/298
f 887/377/598 893/382/355 891/384/190
f 885/376/58 887/377/598 891/384/190
f 886/378/597 885/376/57 891/384/800
f 892/382/282 886/378/597 891/384/800
f 890/381/68 892/382/282 896/385/282
f 894/386/68 890/381/68 896/385/282
f 893/382/355 890/381/298 894/386/298
f 897/385/355 893/382/355 894/386/298
f 891/384/190 893/382/355 897/385/355
f 895/387/190 891/384/190 897/385/355
f 892/382/282 891/384/800 895/387/800
f 896/385/282 892/382/282 895/387/800
f 900/390/364 882/389/301 879/388/68
f 898/391/68 900/390/364 879/388/68
f 894/386/68 896/385/282 900/390/364
f 898/391/68 894/386/68 900/390/364
f 898/391/298 881/388/298 883/389/355
f 901/390/302 898/391/298 883/389/355
f 897/385/355 894/386/298 898/391/298
f 901/390/302 897/385/355 898/391/298
f 898/391/352 879/388/350 881/388/350
f 901/390/302 883/389/355 880/392/190
f 899/393/190 901/390/302 880/392/190
f 895/387/190 897/385/355 901/390/302
f 899/393/190 895/387/190 901/390/302
f 899/393/124 880/392/124 882/389/301
f 900/390/364 899/393/124 882/389/301
f 896/385/282 895/387/800 899/393/124
f 900/390/364 896/385/282 899/393/124
f 822/42/576 824/41/576 828/40/576
f 826/43/576 822/42/576 828/40/576
f 825/46/351 823/45/351 827/44/351
f 829/47/351 825/46/351 827/44/351
f 823/45/124 830/49/61 832/48/282
f 827/44/124 823/45/124 832/48/282
f 830/49/61 822/42/68 826/43/68
f 832/48/282 830/49/61 826/43/68
f 824/41/298 831/51/302 833/50/63
f 828/40/298 824/41/298 833/50/63
f 831/51/302 825/46/190 829/47/190
f 833/50/63 831/51/302 829/47/190
f 829/47/596 827/44/596 832/48/596
f 826/43/596 829/47/596 832/48/596
f 833/50/596 829/47/596 826/43/596
f 828/40/596 833/50/596 826/43/596
f 840/55/576 876/54/576 842/52/576
f 839/58/577 835/57/577 841/56/577
f 843/59/577 839/58/577 841/56/577
f 841/56/787 835/57/787 845/60/585
f 845/61/364 876/63/788 840/62/788
f 842/52/789 876/53/789 847/64/523
f 847/65/584 839/58/790 843/59/790
f 859/68/596 858/67/596 870/66/596
f 861/67/596 860/70/596 870/69/596
f 862/71/596 861/67/596 870/69/596
f 864/67/596 863/73/596 870/72/596
f 865/68/596 864/67/596 870/72/596
f 867/67/596 866/75/596 870/74/596
f 868/68/596 867/67/596 870/74/596
f 858/67/596 869/76/596 870/66/596
f 858/78/359 859/77/359 871/66/359
f 860/80/359 861/67/359 871/79/359
f 861/67/359 862/81/359 871/79/359
f 863/75/359 864/67/359 871/72/359
f 864/67/359 865/68/359 871/72/359
f 866/83/359 867/67/359 871/82/359
f 867/67/359 868/84/359 871/82/359
f 869/81/359 858/78/359 871/66/359
f 870/66/596 872/85/596 859/68/596
f 870/69/596 860/70/596 872/86/596
f 870/69/596 873/87/596 862/71/596
f 870/72/596 863/73/596 873/88/596
f 870/72/596 874/89/596 865/68/596
f 870/74/596 866/75/596 874/90/596
f 870/74/596 875/91/596 868/68/596
f 870/66/596 869/76/596 875/92/596
f 871/79/359 872/86/359 860/80/359
f 871/66/359 859/77/359 872/93/359
f 871/72/359 873/88/359 863/75/359
f 871/79/359 862/81/359 873/87/359
f 871/82/359 874/94/359 866/83/359
f 871/72/359 865/68/359 874/89/359
f 871/66/359 875/95/359 869/81/359
f 871/82/359 868/84/359 875/91/359
f 846/245/583 836/246/580 844/245/582
f 846/245/583 844/245/582 837/247/579
f 878/249/589 846/248/591 837/247/581
f 877/250/588 836/246/580 846/248/591
f 878/249/792 837/247/579 844/248/590
f 836/246/793 877/250/586 844/248/590
f 855/253/595 839/252/790 847/251/584
f 857/254/307 855/253/595 847/251/584
f 878/249/589 855/253/595 857/254/307
f 846/248/591 878/249/589 857/254/307
f 857/254/307 847/251/584 876/255/789
f 854/256/594 857/254/307 876/255/789
f 877/250/588 846/248/591 857/254/307
f 854/256/594 877/250/588 857/254/307
f 853/253/593 835/252/577 839/252/577
f 855/253/593 853/253/593 839/252/577
f 855/253/593 878/249/791 853/253/593
f 845/251/364 835/252/787 853/253/795
f 856/254/280 845/251/364 853/253/795
f 878/249/792 844/248/590 856/254/280
f 853/253/795 878/249/792 856/254/280
f 876/255/788 845/251/364 856/254/280
f 852/256/592 876/255/788 856/254/280
f 877/250/586 852/256/592 856/254/280
f 844/248/590 877/250/586 856/254/280
f 852/256/229 854/256/229 876/255/576
f 852/256/229 877/250/794 854/256/229
g blade_damaged
s 1
f 900/390/364 882/389/301 879/388/68
f 910/391/68 900/390/364 879/388/68
f 911/391/298 881/388/298 883/389/355
f 901/390/302 911/391/298 883/389/355
f 910/391/350 879/388/350 881/388/350
f 911/391/350 910/391/350 881/388/350
f 901/390/302 883/389/355 880/392/190
f 899/393/190 901/390/302 880/392/190
f 899/393/124 880/392/124 882/389/301
f 900/390/364 899/393/124 882/389/301
f 902/42/576 824/41/576 828/40/576
f 903/46/351 823/45/351 827/44/351
f 823/45/124 830/49/61 905/48/282
f 827/44/124 823/45/124 905/48/282
f 905/48/282 830/49/61 902/43/68
f 824/41/298 831/51/302 904/50/63
f 828/40/298 824/41/298 904/50/63
f 904/50/63 831/51/302 903/47/190
f 840/55/576 876/54/576 842/52/576
f 843/59/577 906/58/577 841/56/577
f 841/56/787 906/57/787 845/60/585
f 845/61/364 876/63/788 840/62/788
f 842/52/789 876/53/789 847/64/523
f 847/65/584 906/58/790 843/59/790
f 859/68/596 858/67/596 870/66/596
f 861/67/596 860/70/596 870/69/596
f 862/71/596 861/67/596 870/69/596
f 864/67/596 863/73/596 870/72/596
f 865/68/596 864/67/596 870/72/596
f 867/67/596 866/75/596 870/74/596
f 868/68/596 867/67/596 870/74/596
f 858/67/596 869/76/596 870/66/596
f 858/78/359 859/77/359 871/66/359
f 860/80/359 861/67/359 871/79/359
f 861/67/359 862/81/359 871/79/359
f 863/75/359 864/67/359 871/72/359
f 864/67/359 865/68/359 871/72/359
f 866/83/359 867/67/359 871/82/359
f 867/67/359 868/84/359 871/82/359
f 869/81/359 858/78/359 871/66/359
f 870/66/596 872/85/596 859/68/596
f 870/69/596 860/70/596 872/86/596
f 870/69/596 873/87/596 862/71/596
f 870/72/596 863/73/596 873/88/596
f 870/72/596 874/89/596 865/68/596
f 870/74/596 866/75/596 874/90/596
f 870/74/596 875/91/596 868/68/596
f 870/66/596 869/76/596 875/92/596
f 871/79/359 872/86/359 860/80/359
f 871/66/359 859/77/359 872/93/359
f 871/72/359 873/88/359 863/75/359
f 871/79/359 862/81/359 873/87/359
f 871/82/359 874/94/359 866/83/359
f 871/72/359 865/68/359 874/89/359
f 871/66/359 875/95/359 869/81/359
f 871/82/359 868/84/359 875/91/359
f 878/249/589 846/248/591 837/247/581
f 877/250/588 836/246/580 846/248/591
f 878/249/792 837/247/579 907/248/590
f 836/246/793 877/250/586 907/248/590
f 909/253/595 906/252/790 847/251/584
f 857/254/307 909/253/595 847/251/584
f 878/249/589 909/253/595 857/254/307
f 846/248/591 878/249/589 857/254/307
f 857/254/307 847/251/584 876/255/789
f 908/256/594 857/254/307 876/255/789
f 877/250/588 846/248/591 857/254/307
f 908/256/594 877/250/588 857/254/307
f 845/251/364 906/252/787 909/253/795
f 856/254/280 845/251/364 909/253/795
f 878/249/792 907/248/590 856/254/280
f 909/253/795 878/249/792 856/254/280
f 876/255/788 845/251/364 856/254/280
f 908/256/592 876/255/788 856/254/280
f 877/250/586 908/256/592 856/254/280
f 907/248/590 877/250/586 856/254/280
g blade_fragment
s 1
f 887/377/598 885/376/58 889/375/599
f 885/376/57 912/378/597 889/375/796
f 912/380/755 888/379/797 889/375/796
f 884/380/798 887/377/598 889/375/599
f 888/379/799 884/380/798 889/375/599
f 912/378/597 892/382/282 890/381/68
f 887/377/598 884/383/798 890/381/298
f 893/382/355 887/377/598 890/381/298
f 887/377/598 893/382/355 891/384/190
f 885/376/58 887/377/598 891/384/190
f 912/378/597 885/376/57 891/384/800
f 892/382/282 912/378/597 891/384/800
f 890/381/68 892/382/282 896/385/282
f 894/386/68 890/381/68 896/385/282
f 893/382/355 890/381/298 894/386/298
f 897/385/355 893/382/355 894/386/298
f 891/384/190 893/382/355 897/385/355
f 895/387/190 891/384/190 897/385/355
f 892/382/282 891/384/800 895/387/800
f 896/385/282 892/382/282 895/387/800
f 894/386/68 896/385/282 900/390/364
f 910/391/68 894/386/68 900/390/364
f 897/385/355 894/386/298 911/391/298
f 901/390/302 897/385/355 911/391/298
f 911/391/229 894/386/356 910/391/229
f 895/387/190 897/385/355 901/390/302
f 899/393/190 895/387/190 901/390/302
f 896/385/282 895/387/800 899/393/800
f 900/390/364 896/385/282 899/393/800
g item_back
s 1
f 25/22/19 24/21/18 28/20/22
f 29/23/23 25/22/19 28/20/22
f 27/24/21 25/22/19 29/23/23
f 31/25/25 27/24/21 29/23/23
f 26/26/20 27/24/21 31/25/25
f 30/27/24 26/26/20 31/25/25
f 24/21/18 26/26/20 30/27/24
f 28/20/22 24/21/18 30/27/24
f 30/289/24 31/29/25 29/288/23
f 28/290/22 30/289/24 29/288/23
f 32/34/30 24/33/26 25/32/27
f 33/35/31 32/34/30 25/32/27
f 33/35/31 25/32/27 27/36/29
f 35/37/33 33/35/31 27/36/29
f 35/37/33 27/36/29 26/38/28
f 34/39/32 35/37/33 26/38/28
f 34/39/32 26/38/28 24/33/26
f 32/34/30 34/39/32 24/33/26
f 33/289/31 35/29/33 34/288/32
f 32/290/30 33/289/31 34/288/32
